G04 #@! TF.GenerationSoftware,KiCad,Pcbnew,(6.0.9)*
G04 #@! TF.CreationDate,2025-04-02T09:35:11+02:00*
G04 #@! TF.ProjectId,Sombrero_MSX_Goa'uld,536f6d62-7265-4726-9f5f-4d53585f476f,rev?*
G04 #@! TF.SameCoordinates,Original*
G04 #@! TF.FileFunction,Copper,L2,Inr*
G04 #@! TF.FilePolarity,Positive*
%FSLAX46Y46*%
G04 Gerber Fmt 4.6, Leading zero omitted, Abs format (unit mm)*
G04 Created by KiCad (PCBNEW (6.0.9)) date 2025-04-02 09:35:11*
%MOMM*%
%LPD*%
G01*
G04 APERTURE LIST*
G04 #@! TA.AperFunction,ComponentPad*
%ADD10R,2.400000X1.600000*%
G04 #@! TD*
G04 #@! TA.AperFunction,ComponentPad*
%ADD11O,2.400000X1.600000*%
G04 #@! TD*
G04 #@! TA.AperFunction,ComponentPad*
%ADD12R,1.600000X1.600000*%
G04 #@! TD*
G04 #@! TA.AperFunction,ComponentPad*
%ADD13O,1.600000X1.600000*%
G04 #@! TD*
G04 #@! TA.AperFunction,ViaPad*
%ADD14C,0.800000*%
G04 #@! TD*
G04 #@! TA.AperFunction,Conductor*
%ADD15C,0.450000*%
G04 #@! TD*
G04 #@! TA.AperFunction,Conductor*
%ADD16C,0.300000*%
G04 #@! TD*
G04 APERTURE END LIST*
D10*
X137160000Y-77470000D03*
D11*
X137160000Y-80010000D03*
X137160000Y-82550000D03*
X137160000Y-85090000D03*
X137160000Y-87630000D03*
X137160000Y-90170000D03*
X137160000Y-92710000D03*
X137160000Y-95250000D03*
X137160000Y-97790000D03*
X137160000Y-100330000D03*
X137160000Y-102870000D03*
X137160000Y-105410000D03*
X137160000Y-107950000D03*
X137160000Y-110490000D03*
X137160000Y-113030000D03*
X137160000Y-115570000D03*
X137160000Y-118110000D03*
X137160000Y-120650000D03*
X137160000Y-123190000D03*
X137160000Y-125730000D03*
X157480000Y-125730000D03*
X157480000Y-123190000D03*
X157480000Y-120650000D03*
X157480000Y-118110000D03*
X157480000Y-115570000D03*
X157480000Y-113030000D03*
X157480000Y-110490000D03*
X157480000Y-107950000D03*
X157480000Y-105410000D03*
X157480000Y-102870000D03*
X157480000Y-100330000D03*
X157480000Y-97790000D03*
X157480000Y-95250000D03*
X157480000Y-92710000D03*
X157480000Y-90170000D03*
X157480000Y-87630000D03*
X157480000Y-85090000D03*
X157480000Y-82550000D03*
X157480000Y-80010000D03*
X157480000Y-77470000D03*
D12*
X139710000Y-76200000D03*
D13*
X139710000Y-78740000D03*
X139710000Y-81280000D03*
X139710000Y-83820000D03*
X139710000Y-86360000D03*
X139710000Y-88900000D03*
X139710000Y-91440000D03*
X139710000Y-93980000D03*
X139710000Y-96520000D03*
X139710000Y-99060000D03*
X139710000Y-101600000D03*
X139710000Y-104140000D03*
X139710000Y-106680000D03*
X139710000Y-109220000D03*
X139710000Y-111760000D03*
X139710000Y-114300000D03*
X139710000Y-116840000D03*
X139710000Y-119380000D03*
X139710000Y-121920000D03*
X139710000Y-124460000D03*
X154950000Y-124460000D03*
X154950000Y-121920000D03*
X154950000Y-119380000D03*
X154950000Y-116840000D03*
X154950000Y-114300000D03*
X154950000Y-111760000D03*
X154950000Y-109220000D03*
X154950000Y-106680000D03*
X154950000Y-104140000D03*
X154950000Y-101600000D03*
X154950000Y-99060000D03*
X154950000Y-96520000D03*
X154950000Y-93980000D03*
X154950000Y-91440000D03*
X154950000Y-88900000D03*
X154950000Y-86360000D03*
X154950000Y-83820000D03*
X154950000Y-81280000D03*
X154950000Y-78740000D03*
X154950000Y-76200000D03*
D14*
X145373600Y-106928600D03*
X149777300Y-111268800D03*
X150777400Y-116353400D03*
X141872700Y-90291000D03*
X144423600Y-88793000D03*
X146339400Y-124684900D03*
X147869400Y-112789700D03*
X150827000Y-92791600D03*
X147842300Y-82947400D03*
X151844700Y-93336600D03*
X146394300Y-83453300D03*
X145748200Y-94102200D03*
X144037100Y-90345100D03*
X144425000Y-115797300D03*
X145561900Y-101014200D03*
X146768400Y-101166600D03*
X148069800Y-98486900D03*
X149070000Y-98284300D03*
X149639800Y-99512200D03*
X150358900Y-100446300D03*
X146800700Y-90403800D03*
X146992900Y-93770700D03*
X145451500Y-88452500D03*
X147289100Y-84532800D03*
X149612100Y-80496600D03*
X144260300Y-80214500D03*
X146738500Y-79728400D03*
X152193800Y-124965900D03*
X143462700Y-84663000D03*
X144987900Y-84674000D03*
X144426000Y-74526100D03*
X149432400Y-89902100D03*
X147628100Y-87381700D03*
X148500900Y-115125500D03*
X150008000Y-121671300D03*
X149007900Y-121801800D03*
X144853500Y-119749900D03*
X148938500Y-95721100D03*
X149818500Y-85457200D03*
X143662600Y-112816200D03*
X145164600Y-112779500D03*
X146315000Y-121701900D03*
X151217200Y-105174600D03*
X151009000Y-106175700D03*
X148834100Y-104992300D03*
X149476700Y-105764300D03*
X148813000Y-106919400D03*
X147581200Y-105684300D03*
X146455400Y-106933400D03*
D15*
X149833500Y-115525200D02*
X149833500Y-111325000D01*
X155854900Y-115570000D02*
X155810100Y-115525200D01*
X157480000Y-115570000D02*
X155854900Y-115570000D01*
X155810100Y-115525200D02*
X149833500Y-115525200D01*
X149833500Y-115525200D02*
X146433900Y-118924800D01*
X149833500Y-111325000D02*
X149777300Y-111268800D01*
X146433900Y-118924800D02*
X144505500Y-118924800D01*
X140240300Y-123190000D02*
X137160000Y-123190000D01*
X144505500Y-118924800D02*
X140240300Y-123190000D01*
X142822100Y-125730000D02*
X137160000Y-125730000D01*
X154407200Y-80010000D02*
X157480000Y-80010000D01*
X154950000Y-102914900D02*
X154490400Y-102914900D01*
X144364500Y-88793000D02*
X144423600Y-88793000D01*
X142866500Y-90415500D02*
X142866500Y-90291000D01*
X154490400Y-102914900D02*
X149895100Y-98319600D01*
X142866500Y-90291000D02*
X141872700Y-90291000D01*
X150777400Y-116353400D02*
X150478400Y-116353400D01*
X146101900Y-91634900D02*
X144085900Y-91634900D01*
X149895100Y-98319600D02*
X149895100Y-95428100D01*
X144085900Y-91634900D02*
X142866500Y-90415500D01*
X146438500Y-86282400D02*
X150174500Y-86282400D01*
X144423600Y-88297300D02*
X146438500Y-86282400D01*
X154950000Y-104140000D02*
X154950000Y-102914900D01*
X153349000Y-83107900D02*
X153349000Y-81068200D01*
X145103300Y-121728500D02*
X145103300Y-123448800D01*
X145103300Y-123448800D02*
X142822100Y-125730000D01*
X142866500Y-90291000D02*
X144364500Y-88793000D01*
X145103300Y-123448800D02*
X146339400Y-124684900D01*
X150174500Y-86282400D02*
X153349000Y-83107900D01*
X150478400Y-116353400D02*
X145103300Y-121728500D01*
X153349000Y-81068200D02*
X154407200Y-80010000D01*
X149895100Y-95428100D02*
X146101900Y-91634900D01*
X144423600Y-88793000D02*
X144423600Y-88297300D01*
D16*
X150562200Y-89147800D02*
X154124400Y-92710000D01*
X156119400Y-94471000D02*
X155929900Y-94660500D01*
X155929900Y-94660500D02*
X155929900Y-95250000D01*
X144037100Y-90345100D02*
X145157500Y-90345100D01*
X145157500Y-90345100D02*
X146354800Y-89147800D01*
X156119400Y-93502600D02*
X156119400Y-94471000D01*
X146354800Y-89147800D02*
X150562200Y-89147800D01*
X155326800Y-92710000D02*
X156119400Y-93502600D01*
X154124400Y-92710000D02*
X155326800Y-92710000D01*
X157480000Y-95250000D02*
X155929900Y-95250000D01*
X139710000Y-93980000D02*
X140860100Y-93980000D01*
X146916900Y-97334000D02*
X148069800Y-98486900D01*
X140860100Y-93980000D02*
X144214100Y-97334000D01*
X144214100Y-97334000D02*
X146916900Y-97334000D01*
X149070000Y-98284300D02*
X146622200Y-95836500D01*
X139710000Y-91440000D02*
X140860100Y-91440000D01*
X146622200Y-95836500D02*
X145256600Y-95836500D01*
X145256600Y-95836500D02*
X140860100Y-91440000D01*
X139710000Y-96520000D02*
X140860100Y-96520000D01*
X146046900Y-97909800D02*
X142249900Y-97909800D01*
X147649300Y-99512200D02*
X146046900Y-97909800D01*
X149639800Y-99512200D02*
X147649300Y-99512200D01*
X142249900Y-97909800D02*
X140860100Y-96520000D01*
X150222300Y-100309700D02*
X150358900Y-100446300D01*
X146941000Y-100309700D02*
X150222300Y-100309700D01*
X140860100Y-99060000D02*
X145691300Y-99060000D01*
X139710000Y-99060000D02*
X140860100Y-99060000D01*
X145691300Y-99060000D02*
X146941000Y-100309700D01*
X154950000Y-99060000D02*
X154950000Y-97909900D01*
X154306800Y-97909900D02*
X154950000Y-97909900D01*
X146800700Y-90403800D02*
X154306800Y-97909900D01*
X153799900Y-91440000D02*
X150812400Y-88452500D01*
X150812400Y-88452500D02*
X145451500Y-88452500D01*
X154950000Y-91440000D02*
X153799900Y-91440000D01*
X140860100Y-76200000D02*
X140860100Y-76814300D01*
X139710000Y-76200000D02*
X140860100Y-76200000D01*
X140860100Y-76814300D02*
X144260300Y-80214500D01*
X137160000Y-77470000D02*
X137160000Y-77855100D01*
X137160000Y-77855100D02*
X139314900Y-80010000D01*
X140096900Y-80010000D02*
X143462700Y-83375800D01*
X143462700Y-83375800D02*
X143462700Y-84663000D01*
X139314900Y-80010000D02*
X140096900Y-80010000D01*
X157480000Y-87630000D02*
X155929900Y-87630000D01*
X155929900Y-87630000D02*
X147876400Y-87630000D01*
X147876400Y-87630000D02*
X147628100Y-87381700D01*
D15*
X149818500Y-82133000D02*
X154481500Y-77470000D01*
X154481500Y-77470000D02*
X157480000Y-77470000D01*
X149818500Y-85457200D02*
X149818500Y-82133000D01*
D16*
X157480000Y-105410000D02*
X153217200Y-105410000D01*
X153217200Y-105410000D02*
X150927200Y-107700000D01*
X150927200Y-107700000D02*
X148778800Y-107700000D01*
X148778800Y-107700000D02*
X143662600Y-112816200D01*
X157480000Y-107950000D02*
X151523100Y-107950000D01*
X151523100Y-107950000D02*
X146693600Y-112779500D01*
X146693600Y-112779500D02*
X145164600Y-112779500D01*
X157480000Y-125730000D02*
X155929900Y-125730000D01*
X150343100Y-125730000D02*
X146315000Y-121701900D01*
X155929900Y-125730000D02*
X150343100Y-125730000D01*
X148243000Y-102200400D02*
X151217200Y-105174600D01*
X145687400Y-102200400D02*
X148243000Y-102200400D01*
X137160000Y-100330000D02*
X143817000Y-100330000D01*
X143817000Y-100330000D02*
X145687400Y-102200400D01*
X151009000Y-106175700D02*
X151009000Y-106106400D01*
X137160000Y-102870000D02*
X138710100Y-102870000D01*
X147772600Y-102870000D02*
X138710100Y-102870000D01*
X151009000Y-106106400D02*
X147772600Y-102870000D01*
X147118400Y-104934200D02*
X146642600Y-105410000D01*
X148834100Y-104992300D02*
X148776000Y-104934200D01*
X148776000Y-104934200D02*
X147118400Y-104934200D01*
X137160000Y-105410000D02*
X138710100Y-105410000D01*
X146642600Y-105410000D02*
X138710100Y-105410000D01*
X147609300Y-106919400D02*
X148813000Y-106919400D01*
X146827200Y-106137300D02*
X147609300Y-106919400D01*
X145020000Y-106137300D02*
X146827200Y-106137300D01*
X140667300Y-110490000D02*
X145020000Y-106137300D01*
X137160000Y-110490000D02*
X140667300Y-110490000D01*
X141738500Y-116450700D02*
X141738500Y-111650300D01*
X140079200Y-118110000D02*
X141738500Y-116450700D01*
X141738500Y-111650300D02*
X146455400Y-106933400D01*
X137160000Y-118110000D02*
X140079200Y-118110000D01*
M02*
