G04 #@! TF.GenerationSoftware,KiCad,Pcbnew,(6.0.9)*
G04 #@! TF.CreationDate,2025-04-02T09:35:11+02:00*
G04 #@! TF.ProjectId,Sombrero_MSX_Goa'uld,536f6d62-7265-4726-9f5f-4d53585f476f,rev?*
G04 #@! TF.SameCoordinates,Original*
G04 #@! TF.FileFunction,Copper,L4,Bot*
G04 #@! TF.FilePolarity,Positive*
%FSLAX46Y46*%
G04 Gerber Fmt 4.6, Leading zero omitted, Abs format (unit mm)*
G04 Created by KiCad (PCBNEW (6.0.9)) date 2025-04-02 09:35:11*
%MOMM*%
%LPD*%
G01*
G04 APERTURE LIST*
G04 Aperture macros list*
%AMRoundRect*
0 Rectangle with rounded corners*
0 $1 Rounding radius*
0 $2 $3 $4 $5 $6 $7 $8 $9 X,Y pos of 4 corners*
0 Add a 4 corners polygon primitive as box body*
4,1,4,$2,$3,$4,$5,$6,$7,$8,$9,$2,$3,0*
0 Add four circle primitives for the rounded corners*
1,1,$1+$1,$2,$3*
1,1,$1+$1,$4,$5*
1,1,$1+$1,$6,$7*
1,1,$1+$1,$8,$9*
0 Add four rect primitives between the rounded corners*
20,1,$1+$1,$2,$3,$4,$5,0*
20,1,$1+$1,$4,$5,$6,$7,0*
20,1,$1+$1,$6,$7,$8,$9,0*
20,1,$1+$1,$8,$9,$2,$3,0*%
G04 Aperture macros list end*
G04 #@! TA.AperFunction,ComponentPad*
%ADD10R,2.400000X1.600000*%
G04 #@! TD*
G04 #@! TA.AperFunction,ComponentPad*
%ADD11O,2.400000X1.600000*%
G04 #@! TD*
G04 #@! TA.AperFunction,ComponentPad*
%ADD12R,1.600000X1.600000*%
G04 #@! TD*
G04 #@! TA.AperFunction,ComponentPad*
%ADD13O,1.600000X1.600000*%
G04 #@! TD*
G04 #@! TA.AperFunction,SMDPad,CuDef*
%ADD14RoundRect,0.100000X0.100000X-0.637500X0.100000X0.637500X-0.100000X0.637500X-0.100000X-0.637500X0*%
G04 #@! TD*
G04 #@! TA.AperFunction,SMDPad,CuDef*
%ADD15RoundRect,0.100000X-0.100000X0.637500X-0.100000X-0.637500X0.100000X-0.637500X0.100000X0.637500X0*%
G04 #@! TD*
G04 #@! TA.AperFunction,SMDPad,CuDef*
%ADD16RoundRect,0.250000X-0.475000X0.250000X-0.475000X-0.250000X0.475000X-0.250000X0.475000X0.250000X0*%
G04 #@! TD*
G04 #@! TA.AperFunction,SMDPad,CuDef*
%ADD17R,0.500000X0.800000*%
G04 #@! TD*
G04 #@! TA.AperFunction,SMDPad,CuDef*
%ADD18R,0.400000X0.800000*%
G04 #@! TD*
G04 #@! TA.AperFunction,SMDPad,CuDef*
%ADD19R,1.200000X0.900000*%
G04 #@! TD*
G04 #@! TA.AperFunction,SMDPad,CuDef*
%ADD20RoundRect,0.250000X0.475000X-0.250000X0.475000X0.250000X-0.475000X0.250000X-0.475000X-0.250000X0*%
G04 #@! TD*
G04 #@! TA.AperFunction,SMDPad,CuDef*
%ADD21RoundRect,0.200000X-0.275000X0.200000X-0.275000X-0.200000X0.275000X-0.200000X0.275000X0.200000X0*%
G04 #@! TD*
G04 #@! TA.AperFunction,ViaPad*
%ADD22C,0.800000*%
G04 #@! TD*
G04 #@! TA.AperFunction,Conductor*
%ADD23C,0.450000*%
G04 #@! TD*
G04 #@! TA.AperFunction,Conductor*
%ADD24C,0.400600*%
G04 #@! TD*
G04 #@! TA.AperFunction,Conductor*
%ADD25C,0.300000*%
G04 #@! TD*
G04 APERTURE END LIST*
D10*
X137160000Y-77470000D03*
D11*
X137160000Y-80010000D03*
X137160000Y-82550000D03*
X137160000Y-85090000D03*
X137160000Y-87630000D03*
X137160000Y-90170000D03*
X137160000Y-92710000D03*
X137160000Y-95250000D03*
X137160000Y-97790000D03*
X137160000Y-100330000D03*
X137160000Y-102870000D03*
X137160000Y-105410000D03*
X137160000Y-107950000D03*
X137160000Y-110490000D03*
X137160000Y-113030000D03*
X137160000Y-115570000D03*
X137160000Y-118110000D03*
X137160000Y-120650000D03*
X137160000Y-123190000D03*
X137160000Y-125730000D03*
X157480000Y-125730000D03*
X157480000Y-123190000D03*
X157480000Y-120650000D03*
X157480000Y-118110000D03*
X157480000Y-115570000D03*
X157480000Y-113030000D03*
X157480000Y-110490000D03*
X157480000Y-107950000D03*
X157480000Y-105410000D03*
X157480000Y-102870000D03*
X157480000Y-100330000D03*
X157480000Y-97790000D03*
X157480000Y-95250000D03*
X157480000Y-92710000D03*
X157480000Y-90170000D03*
X157480000Y-87630000D03*
X157480000Y-85090000D03*
X157480000Y-82550000D03*
X157480000Y-80010000D03*
X157480000Y-77470000D03*
D12*
X139710000Y-76200000D03*
D13*
X139710000Y-78740000D03*
X139710000Y-81280000D03*
X139710000Y-83820000D03*
X139710000Y-86360000D03*
X139710000Y-88900000D03*
X139710000Y-91440000D03*
X139710000Y-93980000D03*
X139710000Y-96520000D03*
X139710000Y-99060000D03*
X139710000Y-101600000D03*
X139710000Y-104140000D03*
X139710000Y-106680000D03*
X139710000Y-109220000D03*
X139710000Y-111760000D03*
X139710000Y-114300000D03*
X139710000Y-116840000D03*
X139710000Y-119380000D03*
X139710000Y-121920000D03*
X139710000Y-124460000D03*
X154950000Y-124460000D03*
X154950000Y-121920000D03*
X154950000Y-119380000D03*
X154950000Y-116840000D03*
X154950000Y-114300000D03*
X154950000Y-111760000D03*
X154950000Y-109220000D03*
X154950000Y-106680000D03*
X154950000Y-104140000D03*
X154950000Y-101600000D03*
X154950000Y-99060000D03*
X154950000Y-96520000D03*
X154950000Y-93980000D03*
X154950000Y-91440000D03*
X154950000Y-88900000D03*
X154950000Y-86360000D03*
X154950000Y-83820000D03*
X154950000Y-81280000D03*
X154950000Y-78740000D03*
X154950000Y-76200000D03*
D14*
X148975000Y-91762500D03*
X148325000Y-91762500D03*
X147675000Y-91762500D03*
X147025000Y-91762500D03*
X146375000Y-91762500D03*
X145725000Y-91762500D03*
X145075000Y-91762500D03*
X144425000Y-91762500D03*
X143775000Y-91762500D03*
X143125000Y-91762500D03*
X143125000Y-86037500D03*
X143775000Y-86037500D03*
X144425000Y-86037500D03*
X145075000Y-86037500D03*
X145725000Y-86037500D03*
X146375000Y-86037500D03*
X147025000Y-86037500D03*
X147675000Y-86037500D03*
X148325000Y-86037500D03*
X148975000Y-86037500D03*
D15*
X145665000Y-120327500D03*
X146315000Y-120327500D03*
X146965000Y-120327500D03*
X147615000Y-120327500D03*
X148265000Y-120327500D03*
X148915000Y-120327500D03*
X149565000Y-120327500D03*
X150215000Y-120327500D03*
X150865000Y-120327500D03*
X151515000Y-120327500D03*
X151515000Y-126052500D03*
X150865000Y-126052500D03*
X150215000Y-126052500D03*
X149565000Y-126052500D03*
X148915000Y-126052500D03*
X148265000Y-126052500D03*
X147615000Y-126052500D03*
X146965000Y-126052500D03*
X146315000Y-126052500D03*
X145665000Y-126052500D03*
X145665000Y-102547500D03*
X146315000Y-102547500D03*
X146965000Y-102547500D03*
X147615000Y-102547500D03*
X148265000Y-102547500D03*
X148915000Y-102547500D03*
X149565000Y-102547500D03*
X150215000Y-102547500D03*
X150865000Y-102547500D03*
X151515000Y-102547500D03*
X151515000Y-108272500D03*
X150865000Y-108272500D03*
X150215000Y-108272500D03*
X149565000Y-108272500D03*
X148915000Y-108272500D03*
X148265000Y-108272500D03*
X147615000Y-108272500D03*
X146965000Y-108272500D03*
X146315000Y-108272500D03*
X145665000Y-108272500D03*
D16*
X151130000Y-113350000D03*
X151130000Y-115250000D03*
D14*
X148975000Y-117162500D03*
X148325000Y-117162500D03*
X147675000Y-117162500D03*
X147025000Y-117162500D03*
X146375000Y-117162500D03*
X145725000Y-117162500D03*
X145075000Y-117162500D03*
X144425000Y-117162500D03*
X143775000Y-117162500D03*
X143125000Y-117162500D03*
X143125000Y-111437500D03*
X143775000Y-111437500D03*
X144425000Y-111437500D03*
X145075000Y-111437500D03*
X145725000Y-111437500D03*
X146375000Y-111437500D03*
X147025000Y-111437500D03*
X147675000Y-111437500D03*
X148325000Y-111437500D03*
X148975000Y-111437500D03*
D16*
X152400000Y-76520000D03*
X152400000Y-78420000D03*
D17*
X145485000Y-95620000D03*
D18*
X146285000Y-95620000D03*
X147085000Y-95620000D03*
D17*
X147885000Y-95620000D03*
X147885000Y-97420000D03*
D18*
X147085000Y-97420000D03*
X146285000Y-97420000D03*
D17*
X145485000Y-97420000D03*
D19*
X143510000Y-99950000D03*
X143510000Y-103250000D03*
D17*
X149930000Y-95620000D03*
D18*
X150730000Y-95620000D03*
X151530000Y-95620000D03*
D17*
X152330000Y-95620000D03*
X152330000Y-97420000D03*
D18*
X151530000Y-97420000D03*
X150730000Y-97420000D03*
D17*
X149930000Y-97420000D03*
D20*
X143510000Y-124140000D03*
X143510000Y-122240000D03*
D16*
X143510000Y-105730000D03*
X143510000Y-107630000D03*
X151130000Y-87950000D03*
X151130000Y-89850000D03*
X151130000Y-80330000D03*
X151130000Y-82230000D03*
D14*
X148975000Y-81602500D03*
X148325000Y-81602500D03*
X147675000Y-81602500D03*
X147025000Y-81602500D03*
X146375000Y-81602500D03*
X145725000Y-81602500D03*
X145075000Y-81602500D03*
X144425000Y-81602500D03*
X143775000Y-81602500D03*
X143125000Y-81602500D03*
X143125000Y-75877500D03*
X143775000Y-75877500D03*
X144425000Y-75877500D03*
X145075000Y-75877500D03*
X145725000Y-75877500D03*
X146375000Y-75877500D03*
X147025000Y-75877500D03*
X147675000Y-75877500D03*
X148325000Y-75877500D03*
X148975000Y-75877500D03*
D21*
X142875000Y-95695000D03*
X142875000Y-97345000D03*
D22*
X145373600Y-106928600D03*
X149777300Y-111268800D03*
X150777400Y-116353400D03*
X141872700Y-90291000D03*
X144423600Y-88793000D03*
X146339400Y-124684900D03*
X147869400Y-112789700D03*
X150827000Y-92791600D03*
X147842300Y-82947400D03*
X151844700Y-93336600D03*
X146394300Y-83453300D03*
X145748200Y-94102200D03*
X144037100Y-90345100D03*
X144425000Y-115797300D03*
X145561900Y-101014200D03*
X146768400Y-101166600D03*
X148069800Y-98486900D03*
X149070000Y-98284300D03*
X149639800Y-99512200D03*
X150358900Y-100446300D03*
X146800700Y-90403800D03*
X146992900Y-93770700D03*
X145451500Y-88452500D03*
X147289100Y-84532800D03*
X149612100Y-80496600D03*
X144260300Y-80214500D03*
X146738500Y-79728400D03*
X152193800Y-124965900D03*
X143462700Y-84663000D03*
X144987900Y-84674000D03*
X144426000Y-74526100D03*
X149432400Y-89902100D03*
X147628100Y-87381700D03*
X148500900Y-115125500D03*
X150008000Y-121671300D03*
X149007900Y-121801800D03*
X144853500Y-119749900D03*
X148938500Y-95721100D03*
X149818500Y-85457200D03*
X143662600Y-112816200D03*
X145164600Y-112779500D03*
X146315000Y-121701900D03*
X151217200Y-105174600D03*
X151009000Y-106175700D03*
X148834100Y-104992300D03*
X149476700Y-105764300D03*
X148813000Y-106919400D03*
X147581200Y-105684300D03*
X146455400Y-106933400D03*
D23*
X143510000Y-105730000D02*
X144175000Y-105730000D01*
X157480000Y-115570000D02*
X153350000Y-115570000D01*
X148975000Y-117162500D02*
X148975100Y-117162500D01*
X145373600Y-107981100D02*
X145373600Y-106928600D01*
X149326000Y-115154000D02*
X151130000Y-113350000D01*
X144175000Y-105730000D02*
X145373600Y-106928600D01*
X148975100Y-117162500D02*
X149326000Y-116811600D01*
X149326000Y-116811600D02*
X149326000Y-115154000D01*
X153350000Y-115570000D02*
X151130000Y-113350000D01*
X149777300Y-111268800D02*
X149608600Y-111437500D01*
X145665000Y-108272500D02*
X145373600Y-107981100D01*
X149608600Y-111437500D02*
X148975000Y-111437500D01*
X147322600Y-118326100D02*
X150215000Y-118326100D01*
X150865000Y-120327500D02*
X150215000Y-120327500D01*
X157480000Y-80010000D02*
X153350000Y-80010000D01*
X145328100Y-118410400D02*
X145725000Y-118013500D01*
X148300600Y-111682300D02*
X148300600Y-112358500D01*
X153350000Y-80010000D02*
X151130000Y-82230000D01*
D24*
X148300600Y-111461900D02*
X148312800Y-111449700D01*
X145334800Y-109410800D02*
X146059700Y-109410800D01*
D23*
X143125000Y-81602500D02*
X143125000Y-82312400D01*
X141872700Y-90510200D02*
X143125000Y-91762500D01*
X141872700Y-90291000D02*
X141872700Y-90510200D01*
X151130000Y-115250000D02*
X150777400Y-115602600D01*
X147025000Y-118028500D02*
X147322600Y-118326100D01*
X148300600Y-112358500D02*
X147869400Y-112789700D01*
X150777400Y-115602600D02*
X150777400Y-116353400D01*
X148312800Y-111449700D02*
X148312800Y-111437500D01*
X150101900Y-90878100D02*
X148975000Y-90878100D01*
D24*
X146059700Y-109410800D02*
X146065200Y-109405300D01*
D23*
X143125000Y-118025400D02*
X143510000Y-118410400D01*
X154950000Y-104140000D02*
X153724900Y-104140000D01*
X141498700Y-89917000D02*
X141872700Y-90291000D01*
X146339400Y-108517300D02*
X146339400Y-109131100D01*
X152400000Y-78420000D02*
X153350000Y-79370000D01*
X143510000Y-118410400D02*
X143510000Y-122240000D01*
X153350000Y-79370000D02*
X153350000Y-80010000D01*
D24*
X146339400Y-108296900D02*
X146315000Y-108272500D01*
X144863400Y-108939400D02*
X145334800Y-109410800D01*
D23*
X145725000Y-118013500D02*
X146039200Y-118327700D01*
X150215000Y-120327500D02*
X150215000Y-118326100D01*
X149602500Y-82230000D02*
X151130000Y-82230000D01*
X147675000Y-117162500D02*
X148325000Y-117162500D01*
X147025000Y-117162500D02*
X147675000Y-117162500D01*
X145725000Y-118013500D02*
X145725000Y-117162500D01*
D24*
X148300600Y-111682300D02*
X148300600Y-111461900D01*
D23*
X148975000Y-90878100D02*
X148975000Y-91762500D01*
D24*
X148312800Y-111437500D02*
X148325000Y-111437500D01*
D23*
X144423600Y-88793000D02*
X144981600Y-89351000D01*
X141498700Y-83938700D02*
X141498700Y-89917000D01*
D24*
X146339400Y-108517300D02*
X146339400Y-108296900D01*
D23*
X146339400Y-109131100D02*
X146065200Y-109405300D01*
X146339400Y-125807700D02*
X146339400Y-124684900D01*
X152132400Y-102547500D02*
X151515000Y-102547500D01*
X151130000Y-89850000D02*
X150101900Y-90878100D01*
X148975000Y-81602500D02*
X149602500Y-82230000D01*
X147025000Y-118028500D02*
X147025000Y-117162500D01*
X147466800Y-109679500D02*
X146887800Y-109679500D01*
X143510000Y-118410400D02*
X145328100Y-118410400D01*
D24*
X146339400Y-126028100D02*
X146315000Y-126052500D01*
D23*
X150777400Y-117763700D02*
X150777400Y-116353400D01*
X148312800Y-110525500D02*
X147466800Y-109679500D01*
X146725800Y-118327700D02*
X147025000Y-118028500D01*
X153724900Y-104140000D02*
X152132400Y-102547500D01*
X147447900Y-89351000D02*
X148975000Y-90878100D01*
X150215000Y-118326100D02*
X150777400Y-117763700D01*
X148312800Y-111437500D02*
X148312800Y-110525500D01*
X143510000Y-107630000D02*
X144819400Y-108939400D01*
X144981600Y-89351000D02*
X147447900Y-89351000D01*
X146039200Y-118327700D02*
X146725800Y-118327700D01*
D24*
X146339400Y-125807700D02*
X146339400Y-126028100D01*
D23*
X143125000Y-82312400D02*
X141498700Y-83938700D01*
X151515000Y-120327500D02*
X150865000Y-120327500D01*
X144819400Y-108939400D02*
X144863400Y-108939400D01*
X146887800Y-109679500D02*
X146339400Y-109131100D01*
X143125000Y-117162500D02*
X143125000Y-118025400D01*
X142484900Y-103149800D02*
X142484900Y-103250000D01*
X143510000Y-103250000D02*
X142484900Y-103250000D01*
X139710000Y-101600000D02*
X140935100Y-101600000D01*
X140935100Y-101600000D02*
X142484900Y-103149800D01*
D25*
X148423700Y-93378900D02*
X149482700Y-93378900D01*
X147675000Y-92630200D02*
X148423700Y-93378900D01*
X147675000Y-81602500D02*
X147675000Y-82780100D01*
X147675000Y-82780100D02*
X147842300Y-82947400D01*
X147675000Y-91762500D02*
X147675000Y-92630200D01*
X149482700Y-93378900D02*
X150070000Y-92791600D01*
X150070000Y-92791600D02*
X150827000Y-92791600D01*
X158244300Y-91378600D02*
X159075800Y-92210100D01*
X151822100Y-91697400D02*
X153232000Y-90287500D01*
X153232000Y-90287500D02*
X155424100Y-90287500D01*
X159075800Y-92210100D02*
X159075800Y-100794200D01*
X155424100Y-90287500D02*
X156515200Y-91378600D01*
X156515200Y-91378600D02*
X158244300Y-91378600D01*
X149275500Y-92878800D02*
X150456900Y-91697400D01*
X150456900Y-91697400D02*
X151822100Y-91697400D01*
X159075800Y-100794200D02*
X158270000Y-101600000D01*
X148325000Y-91762500D02*
X148325000Y-92503000D01*
X148700800Y-92878800D02*
X149275500Y-92878800D01*
X148325000Y-92503000D02*
X148700800Y-92878800D01*
X158270000Y-101600000D02*
X154950000Y-101600000D01*
X147025000Y-91762500D02*
X147025000Y-92701700D01*
X150027100Y-93541700D02*
X151639600Y-93541700D01*
X149689800Y-93879000D02*
X150027100Y-93541700D01*
X148202300Y-93879000D02*
X149689800Y-93879000D01*
X147025000Y-82822600D02*
X146394300Y-83453300D01*
X151639600Y-93541700D02*
X151844700Y-93336600D01*
X147025000Y-92701700D02*
X148202300Y-93879000D01*
X147025000Y-81602500D02*
X147025000Y-82822600D01*
X145075000Y-82476400D02*
X143751100Y-83800300D01*
X145075000Y-90322200D02*
X145075000Y-91762500D01*
X142573900Y-88053000D02*
X144097300Y-89576400D01*
X143264700Y-83800300D02*
X142573900Y-84491100D01*
X142573900Y-84491100D02*
X142573900Y-88053000D01*
X144329200Y-89576400D02*
X145075000Y-90322200D01*
X145075000Y-91762500D02*
X145075000Y-93429000D01*
X144097300Y-89576400D02*
X144329200Y-89576400D01*
X145075000Y-81602500D02*
X145075000Y-82476400D01*
X143751100Y-83800300D02*
X143264700Y-83800300D01*
X145075000Y-93429000D02*
X145748200Y-94102200D01*
X144425000Y-90733000D02*
X144425000Y-91762500D01*
X143648700Y-82709100D02*
X142073800Y-84284000D01*
X142073800Y-88381800D02*
X144037100Y-90345100D01*
X142073800Y-84284000D02*
X142073800Y-88381800D01*
X144425000Y-82384700D02*
X144100600Y-82709100D01*
X144100600Y-82709100D02*
X143648700Y-82709100D01*
X144037100Y-90345100D02*
X144425000Y-90733000D01*
X144425000Y-81602500D02*
X144425000Y-82384700D01*
X139710000Y-121920000D02*
X140860100Y-121920000D01*
X140860100Y-123070100D02*
X140860100Y-121920000D01*
X146965000Y-126855600D02*
X146637800Y-127182800D01*
X146965000Y-126052500D02*
X146965000Y-126855600D01*
X144972800Y-127182800D02*
X140860100Y-123070100D01*
X146637800Y-127182800D02*
X144972800Y-127182800D01*
X147615000Y-126052500D02*
X147615000Y-126917400D01*
X139710000Y-124460000D02*
X140860100Y-124460000D01*
X147615000Y-126917400D02*
X146845000Y-127687400D01*
X144087500Y-127687400D02*
X140860100Y-124460000D01*
X146845000Y-127687400D02*
X144087500Y-127687400D01*
X151679100Y-123712500D02*
X153052400Y-123712500D01*
X150048700Y-123943400D02*
X151448200Y-123943400D01*
X153052400Y-123712500D02*
X153799900Y-124460000D01*
X148265000Y-126052500D02*
X148265000Y-125248600D01*
X151448200Y-123943400D02*
X151679100Y-123712500D01*
X149939900Y-124052200D02*
X150048700Y-123943400D01*
X154950000Y-124460000D02*
X153799900Y-124460000D01*
X148265000Y-125248600D02*
X149461400Y-124052200D01*
X149461400Y-124052200D02*
X149939900Y-124052200D01*
X158302600Y-121920000D02*
X154950000Y-121920000D01*
X159032500Y-126250500D02*
X159032500Y-122649900D01*
X148915000Y-125314100D02*
X149676800Y-124552300D01*
X150147000Y-124552300D02*
X150255800Y-124443500D01*
X151655300Y-124443500D02*
X151886200Y-124212600D01*
X149676800Y-124552300D02*
X150147000Y-124552300D01*
X155169300Y-126880600D02*
X158402400Y-126880600D01*
X148915000Y-126052500D02*
X148915000Y-125314100D01*
X159032500Y-122649900D02*
X158302600Y-121920000D01*
X151886200Y-124212600D02*
X152501300Y-124212600D01*
X158402400Y-126880600D02*
X159032500Y-126250500D01*
X152501300Y-124212600D02*
X155169300Y-126880600D01*
X150255800Y-124443500D02*
X151655300Y-124443500D01*
X154950000Y-111760000D02*
X153799900Y-111760000D01*
X145075000Y-116390500D02*
X145075000Y-117162500D01*
X151118800Y-111760000D02*
X148503400Y-114375400D01*
X147090100Y-114375400D02*
X145075000Y-116390500D01*
X153799900Y-111760000D02*
X151118800Y-111760000D01*
X148503400Y-114375400D02*
X147090100Y-114375400D01*
X144425000Y-117162500D02*
X144425000Y-115797300D01*
X145561900Y-101045300D02*
X145561900Y-101014200D01*
X145485000Y-100937300D02*
X145485000Y-97420000D01*
X145561900Y-101014200D02*
X145485000Y-100937300D01*
X146315000Y-101798400D02*
X145561900Y-101045300D01*
X146315000Y-102547500D02*
X146315000Y-101798400D01*
X146965000Y-101363200D02*
X146768400Y-101166600D01*
X146768400Y-101159900D02*
X146285000Y-100676500D01*
X146285000Y-100676500D02*
X146285000Y-97420000D01*
X146965000Y-102547500D02*
X146965000Y-101363200D01*
X146768400Y-101166600D02*
X146768400Y-101159900D01*
X147085000Y-100037600D02*
X147085000Y-97420000D01*
X147615000Y-103274800D02*
X147615000Y-102547500D01*
X147615000Y-100567600D02*
X147085000Y-100037600D01*
X146749800Y-104140000D02*
X147615000Y-103274800D01*
X147615000Y-102547500D02*
X147615000Y-100567600D01*
X140860100Y-104140000D02*
X146749800Y-104140000D01*
X139710000Y-104140000D02*
X140860100Y-104140000D01*
X148069800Y-98486900D02*
X148265000Y-98682100D01*
X147885000Y-98170100D02*
X148069800Y-98354900D01*
X148069800Y-98354900D02*
X148069800Y-98486900D01*
X147885000Y-97420000D02*
X147885000Y-98170100D01*
X148265000Y-98682100D02*
X148265000Y-102547500D01*
X149499300Y-98600800D02*
X149386500Y-98600800D01*
X149386500Y-98600800D02*
X149070000Y-98284300D01*
X148889700Y-99097600D02*
X148889700Y-102522200D01*
X149930000Y-98170100D02*
X149499300Y-98600800D01*
X148889700Y-102522200D02*
X148915000Y-102547500D01*
X149930000Y-97420000D02*
X149930000Y-98170100D01*
X149386500Y-98600800D02*
X148889700Y-99097600D01*
X150730000Y-97420000D02*
X150730000Y-98170100D01*
X150730000Y-98170100D02*
X149639800Y-99260300D01*
X149565000Y-99587000D02*
X149565000Y-102547500D01*
X149639800Y-99512200D02*
X149565000Y-99587000D01*
X149639800Y-99260300D02*
X149639800Y-99512200D01*
X150215000Y-102547500D02*
X150215000Y-100590200D01*
X151530000Y-97420000D02*
X151530000Y-99275200D01*
X150215000Y-100590200D02*
X150358900Y-100446300D01*
X151530000Y-99275200D02*
X150358900Y-100446300D01*
X150865000Y-102547500D02*
X150865000Y-103363600D01*
X152330000Y-97420000D02*
X152330000Y-99806300D01*
X148521500Y-103761900D02*
X147643200Y-104640200D01*
X150865000Y-103363600D02*
X150466700Y-103761900D01*
X139710000Y-106680000D02*
X140860100Y-106680000D01*
X147643200Y-104640200D02*
X142899900Y-104640200D01*
X150466700Y-103761900D02*
X148521500Y-103761900D01*
X142899900Y-104640200D02*
X140860100Y-106680000D01*
X152330000Y-99806300D02*
X150865000Y-101271300D01*
X150865000Y-101271300D02*
X150865000Y-102547500D01*
X146375000Y-91762500D02*
X146375000Y-90829500D01*
X146375000Y-90829500D02*
X146800700Y-90403800D01*
X145725000Y-92502800D02*
X146992900Y-93770700D01*
X145725000Y-91762500D02*
X145725000Y-92502800D01*
X143775000Y-93189700D02*
X145437600Y-94852300D01*
X154950000Y-93980000D02*
X153799900Y-93980000D01*
X153659900Y-94120000D02*
X153799900Y-93980000D01*
X149423900Y-94852300D02*
X150156200Y-94120000D01*
X145437600Y-94852300D02*
X149423900Y-94852300D01*
X150156200Y-94120000D02*
X153659900Y-94120000D01*
X143775000Y-91762500D02*
X143775000Y-93189700D01*
X143775000Y-86037500D02*
X143775000Y-86776000D01*
X143775000Y-86776000D02*
X145451500Y-88452500D01*
X147078100Y-88131900D02*
X145725000Y-86778800D01*
X148986500Y-88131900D02*
X147078100Y-88131900D01*
X154950000Y-88900000D02*
X153799900Y-88900000D01*
X145725000Y-86778800D02*
X145725000Y-86037500D01*
X149754600Y-88900000D02*
X148986500Y-88131900D01*
X153799900Y-88900000D02*
X149754600Y-88900000D01*
X146375000Y-85308400D02*
X147150600Y-84532800D01*
X146375000Y-86037500D02*
X146375000Y-85308400D01*
X147150600Y-84532800D02*
X147289100Y-84532800D01*
X148325000Y-85302600D02*
X148325000Y-86037500D01*
X154950000Y-83820000D02*
X153799900Y-83820000D01*
X152922400Y-84697500D02*
X148930100Y-84697500D01*
X148930100Y-84697500D02*
X148325000Y-85302600D01*
X153799900Y-83820000D02*
X152922400Y-84697500D01*
X146375000Y-81602500D02*
X146375000Y-80872500D01*
X146375000Y-80872500D02*
X146750900Y-80496600D01*
X146750900Y-80496600D02*
X149612100Y-80496600D01*
X140923600Y-83682200D02*
X140923600Y-84259200D01*
X146211100Y-78754100D02*
X144534600Y-78754100D01*
X140923600Y-84259200D02*
X139972900Y-85209900D01*
X139972900Y-85209900D02*
X139710000Y-85209900D01*
X144534600Y-78754100D02*
X142198800Y-81089900D01*
X139710000Y-86360000D02*
X139710000Y-85209900D01*
X142198800Y-81089900D02*
X142198800Y-82407000D01*
X148325000Y-76640200D02*
X146211100Y-78754100D01*
X148325000Y-75877500D02*
X148325000Y-76640200D01*
X142198800Y-82407000D02*
X140923600Y-83682200D01*
X143775000Y-80699800D02*
X144260300Y-80214500D01*
X143775000Y-81602500D02*
X143775000Y-80699800D01*
X145725000Y-80741900D02*
X145725000Y-81602500D01*
X146738500Y-79728400D02*
X145725000Y-80741900D01*
X140922600Y-77106500D02*
X140439200Y-77589900D01*
X143775000Y-75877500D02*
X143775000Y-75141500D01*
X143775000Y-75141500D02*
X143403800Y-74770300D01*
X139710000Y-78740000D02*
X139710000Y-77589900D01*
X140922600Y-76670400D02*
X140922600Y-77106500D01*
X142822700Y-74770300D02*
X140922600Y-76670400D01*
X140439200Y-77589900D02*
X139710000Y-77589900D01*
X143403800Y-74770300D02*
X142822700Y-74770300D01*
X151988600Y-83091300D02*
X149084700Y-83091300D01*
X149084700Y-83091300D02*
X148325000Y-82331600D01*
X153799900Y-81280000D02*
X151988600Y-83091300D01*
X148325000Y-82331600D02*
X148325000Y-81602500D01*
X154950000Y-81280000D02*
X153799900Y-81280000D01*
X146375000Y-76689500D02*
X145250000Y-77814500D01*
X140016000Y-82669900D02*
X139710000Y-82669900D01*
X141226500Y-81459400D02*
X140016000Y-82669900D01*
X141226500Y-81318300D02*
X141226500Y-81459400D01*
X145250000Y-77814500D02*
X144730300Y-77814500D01*
X139710000Y-83820000D02*
X139710000Y-82669900D01*
X144730300Y-77814500D02*
X141226500Y-81318300D01*
X146375000Y-75877500D02*
X146375000Y-76689500D01*
X145725000Y-76630000D02*
X145040600Y-77314400D01*
X145725000Y-75877500D02*
X145725000Y-76630000D01*
X143675600Y-77314400D02*
X139710000Y-81280000D01*
X145040600Y-77314400D02*
X143675600Y-77314400D01*
X141089800Y-96183700D02*
X140156100Y-95250000D01*
X134600100Y-119640200D02*
X135609900Y-120650000D01*
X139186600Y-95250000D02*
X138033800Y-94097200D01*
X138033800Y-94097200D02*
X136184600Y-94097200D01*
X142754100Y-100753100D02*
X141089800Y-99088800D01*
X140156100Y-95250000D02*
X139186600Y-95250000D01*
X144460200Y-100753100D02*
X142754100Y-100753100D01*
X144460200Y-101342700D02*
X145665000Y-102547500D01*
X144460200Y-98930200D02*
X144460200Y-100753100D01*
X142875000Y-97345000D02*
X144460200Y-98930200D01*
X141089800Y-99088800D02*
X141089800Y-96183700D01*
X134600100Y-95681700D02*
X134600100Y-119640200D01*
X144460200Y-100753100D02*
X144460200Y-101342700D01*
X136184600Y-94097200D02*
X134600100Y-95681700D01*
X137160000Y-120650000D02*
X135609900Y-120650000D01*
X158629400Y-127406600D02*
X159580000Y-126456000D01*
X149565000Y-126785300D02*
X150186300Y-127406600D01*
X156703200Y-111760000D02*
X155313300Y-110370100D01*
X150186300Y-127406600D02*
X158629400Y-127406600D01*
X158270000Y-111760000D02*
X156703200Y-111760000D01*
X149565000Y-126052500D02*
X149565000Y-126785300D01*
X154950000Y-109220000D02*
X154950000Y-110370100D01*
X155313300Y-110370100D02*
X154950000Y-110370100D01*
X159580000Y-113070000D02*
X158270000Y-111760000D01*
X159580000Y-126456000D02*
X159580000Y-113070000D01*
X150215000Y-125236400D02*
X150507800Y-124943600D01*
X150215000Y-126052500D02*
X150215000Y-125236400D01*
X150507800Y-124943600D02*
X152171500Y-124943600D01*
X152171500Y-124943600D02*
X152193800Y-124965900D01*
X143125000Y-86037500D02*
X143125000Y-85000700D01*
X143125000Y-85000700D02*
X143462700Y-84663000D01*
X144425000Y-75877500D02*
X144426000Y-75876500D01*
X144425000Y-86037500D02*
X144425000Y-85236900D01*
X144426000Y-75876500D02*
X144426000Y-74526100D01*
X144425000Y-85236900D02*
X144987900Y-84674000D01*
X145075000Y-86836200D02*
X145075000Y-86037500D01*
X149432400Y-89902100D02*
X148162300Y-88632000D01*
X160069200Y-89130900D02*
X159030100Y-90170000D01*
X148162300Y-88632000D02*
X146870800Y-88632000D01*
X160069200Y-76515100D02*
X160069200Y-89130900D01*
X146457600Y-73766900D02*
X157321000Y-73766900D01*
X157480000Y-90170000D02*
X159030100Y-90170000D01*
X145075000Y-75877500D02*
X145075000Y-75149500D01*
X146870800Y-88632000D02*
X145075000Y-86836200D01*
X157321000Y-73766900D02*
X160069200Y-76515100D01*
X145075000Y-75149500D02*
X146457600Y-73766900D01*
X147025000Y-86037500D02*
X147025000Y-86778600D01*
X157480000Y-87630000D02*
X159030100Y-87630000D01*
X159547800Y-87112300D02*
X159030100Y-87630000D01*
X159547800Y-76724300D02*
X159547800Y-87112300D01*
X147025000Y-75877500D02*
X147025000Y-75027400D01*
X147025000Y-75027400D02*
X147785300Y-74267100D01*
X147785300Y-74267100D02*
X157090600Y-74267100D01*
X157090600Y-74267100D02*
X159547800Y-76724300D01*
X147025000Y-86778600D02*
X147628100Y-87381700D01*
X147687400Y-115125500D02*
X148500900Y-115125500D01*
X146375000Y-116437900D02*
X147687400Y-115125500D01*
X146375000Y-117162500D02*
X146375000Y-116437900D01*
X141642600Y-114300000D02*
X139710000Y-114300000D01*
X143775000Y-117162500D02*
X143775000Y-116432400D01*
X143775000Y-116432400D02*
X141642600Y-114300000D01*
X157480000Y-82550000D02*
X153706500Y-82550000D01*
X152059100Y-84197400D02*
X148716800Y-84197400D01*
X153706500Y-82550000D02*
X152059100Y-84197400D01*
X147675000Y-75091500D02*
X147999200Y-74767300D01*
X148716800Y-84197400D02*
X147675000Y-85239200D01*
X147675000Y-85239200D02*
X147675000Y-86037500D01*
X157480000Y-82550000D02*
X159030100Y-82550000D01*
X147999200Y-74767300D02*
X156840900Y-74767300D01*
X156840900Y-74767300D02*
X159030100Y-76956500D01*
X159030100Y-76956500D02*
X159030100Y-82550000D01*
X147675000Y-75877500D02*
X147675000Y-75091500D01*
X143125000Y-75877500D02*
X143125000Y-76960000D01*
X143125000Y-76960000D02*
X140075000Y-80010000D01*
X140075000Y-80010000D02*
X137160000Y-80010000D01*
X137160000Y-95250000D02*
X135100200Y-97309800D01*
X137916600Y-109220000D02*
X139186600Y-110490000D01*
X135100200Y-107954200D02*
X136366000Y-109220000D01*
X135100200Y-97309800D02*
X135100200Y-107954200D01*
X145725000Y-112279100D02*
X145725000Y-111437500D01*
X145914700Y-113090200D02*
X145914700Y-112468800D01*
X136366000Y-109220000D02*
X137916600Y-109220000D01*
X140140200Y-110490000D02*
X143254100Y-113603900D01*
X143254100Y-113603900D02*
X145401000Y-113603900D01*
X139186600Y-110490000D02*
X140140200Y-110490000D01*
X145401000Y-113603900D02*
X145914700Y-113090200D01*
X145914700Y-112468800D02*
X145725000Y-112279100D01*
X136402700Y-106680000D02*
X135609900Y-105887200D01*
X137160000Y-97790000D02*
X135609900Y-97790000D01*
X143125000Y-111437500D02*
X143125000Y-110906300D01*
X140168700Y-107950000D02*
X139186600Y-107950000D01*
X135609900Y-105887200D02*
X135609900Y-97790000D01*
X137916600Y-106680000D02*
X136402700Y-106680000D01*
X139186600Y-107950000D02*
X137916600Y-106680000D01*
X143125000Y-110906300D02*
X140168700Y-107950000D01*
X150008000Y-121671300D02*
X149565000Y-121228300D01*
X149565000Y-121228300D02*
X149565000Y-120327500D01*
X148915000Y-121708900D02*
X149007900Y-121801800D01*
X148915000Y-120327500D02*
X148915000Y-121708900D01*
D23*
X143181800Y-99074900D02*
X141945500Y-97838600D01*
X149828900Y-95721100D02*
X149930000Y-95620000D01*
X150730000Y-95413700D02*
X150730000Y-95207400D01*
X142843700Y-95953300D02*
X143335500Y-96445100D01*
X145485000Y-96004900D02*
X145485000Y-96445100D01*
X145485000Y-95620000D02*
X145485000Y-96004900D01*
X150136300Y-95413700D02*
X149930000Y-95620000D01*
X149238200Y-86058200D02*
X149238200Y-86037500D01*
X143510000Y-99950000D02*
X143510000Y-99074900D01*
X147885000Y-95822200D02*
X147885000Y-96055900D01*
X145376200Y-120327500D02*
X145376200Y-122273800D01*
X151130000Y-76520000D02*
X152400000Y-76520000D01*
X148975000Y-75877500D02*
X150487500Y-75877500D01*
X145376200Y-120327500D02*
X145665000Y-120327500D01*
X147885000Y-96055900D02*
X147495800Y-96445100D01*
X149238200Y-86037500D02*
X148975000Y-86037500D01*
X143335500Y-96445100D02*
X145485000Y-96445100D01*
X151530000Y-95207400D02*
X150730000Y-95207400D01*
X147085000Y-95620000D02*
X147085000Y-96445100D01*
X151530000Y-95207400D02*
X151530000Y-94794900D01*
X146285000Y-96004900D02*
X145485000Y-96004900D01*
X153350000Y-77470000D02*
X152400000Y-76520000D01*
X141945500Y-96851500D02*
X142843700Y-95953300D01*
X152330000Y-95620000D02*
X152330000Y-94794900D01*
X141945500Y-97838600D02*
X141945500Y-96851500D01*
X147885000Y-95721100D02*
X148938500Y-95721100D01*
X143510000Y-99074900D02*
X143181800Y-99074900D01*
X146662200Y-96445100D02*
X147085000Y-96445100D01*
X146285000Y-95942000D02*
X146285000Y-96004900D01*
X142843700Y-95726300D02*
X142843700Y-95953300D01*
X149818500Y-85457200D02*
X149238200Y-86037500D01*
X142875000Y-95695000D02*
X142843700Y-95726300D01*
X151530000Y-95620000D02*
X151530000Y-95207400D01*
X146285000Y-96067900D02*
X146662200Y-96445100D01*
X151130000Y-87950000D02*
X149238200Y-86058200D01*
X151130000Y-76520000D02*
X151130000Y-80330000D01*
X147885000Y-95620000D02*
X147885000Y-95721100D01*
X145376200Y-120327500D02*
X145376200Y-120272600D01*
X150487500Y-75877500D02*
X151130000Y-76520000D01*
X152330000Y-94794900D02*
X151530000Y-94794900D01*
X145376200Y-122273800D02*
X143631300Y-124018700D01*
X147885000Y-95721100D02*
X147885000Y-95822200D01*
X150730000Y-95620000D02*
X150730000Y-95413700D01*
X145376200Y-120272600D02*
X144853500Y-119749900D01*
X148938500Y-95721100D02*
X149828900Y-95721100D01*
X143631300Y-124018700D02*
X143510000Y-124140000D01*
X147495800Y-96445100D02*
X147085000Y-96445100D01*
X157480000Y-77470000D02*
X153350000Y-77470000D01*
X146285000Y-96004900D02*
X146285000Y-96067900D01*
X143631300Y-124018700D02*
X145665000Y-126052500D01*
X146285000Y-95620000D02*
X146285000Y-95942000D01*
X150730000Y-95413700D02*
X150136300Y-95413700D01*
D25*
X143775000Y-111437500D02*
X143775000Y-112703800D01*
X143775000Y-112703800D02*
X143662600Y-112816200D01*
X144425000Y-111437500D02*
X144425000Y-112176000D01*
X144425000Y-112176000D02*
X145028500Y-112779500D01*
X145028500Y-112779500D02*
X145164600Y-112779500D01*
X148265000Y-120327500D02*
X148257700Y-120334800D01*
X152178200Y-121091800D02*
X152178200Y-120460900D01*
X152178200Y-120460900D02*
X154529100Y-118110000D01*
X148257700Y-122112300D02*
X148697300Y-122551900D01*
X149318600Y-122551900D02*
X149427400Y-122443100D01*
X149427400Y-122443100D02*
X150826900Y-122443100D01*
X154529100Y-118110000D02*
X157480000Y-118110000D01*
X150826900Y-122443100D02*
X152178200Y-121091800D01*
X148697300Y-122551900D02*
X149318600Y-122551900D01*
X148257700Y-120334800D02*
X148257700Y-122112300D01*
X149634500Y-122943200D02*
X151033900Y-122943200D01*
X151033900Y-122943200D02*
X153327100Y-120650000D01*
X147639800Y-120352300D02*
X147639800Y-122221900D01*
X149525700Y-123052000D02*
X149634500Y-122943200D01*
X153327100Y-120650000D02*
X157480000Y-120650000D01*
X147639800Y-122221900D02*
X148469900Y-123052000D01*
X147615000Y-120327500D02*
X147639800Y-120352300D01*
X148469900Y-123052000D02*
X149525700Y-123052000D01*
X151494400Y-123190000D02*
X155929900Y-123190000D01*
X146965000Y-121263700D02*
X147139700Y-121438400D01*
X146965000Y-120327500D02*
X146965000Y-121263700D01*
X149841600Y-123443300D02*
X151241100Y-123443300D01*
X148262800Y-123552100D02*
X149732800Y-123552100D01*
X147139700Y-121438400D02*
X147139700Y-122429000D01*
X151241100Y-123443300D02*
X151494400Y-123190000D01*
X149732800Y-123552100D02*
X149841600Y-123443300D01*
X147139700Y-122429000D02*
X148262800Y-123552100D01*
X157480000Y-123190000D02*
X155929900Y-123190000D01*
X146315000Y-120327500D02*
X146315000Y-121701900D01*
X151764700Y-108022800D02*
X151764700Y-105722100D01*
X151515000Y-108272500D02*
X151764700Y-108022800D01*
X151764700Y-105722100D02*
X151217200Y-105174600D01*
X150865000Y-108272500D02*
X150865000Y-106319700D01*
X150865000Y-106319700D02*
X151009000Y-106175700D01*
X150226800Y-108260700D02*
X150226800Y-105375900D01*
X149843200Y-104992300D02*
X148834100Y-104992300D01*
X150215000Y-108272500D02*
X150226800Y-108260700D01*
X150226800Y-105375900D02*
X149843200Y-104992300D01*
X149565000Y-108272500D02*
X149565000Y-105852600D01*
X149565000Y-105852600D02*
X149476700Y-105764300D01*
X148915000Y-108272500D02*
X148915000Y-107021400D01*
X148915000Y-107021400D02*
X148813000Y-106919400D01*
X150579000Y-110927600D02*
X149799000Y-110147600D01*
X141924600Y-113030000D02*
X142998600Y-114104000D01*
X150579000Y-111547600D02*
X150579000Y-110927600D01*
X146256700Y-113779600D02*
X148347000Y-113779600D01*
X148265000Y-108997100D02*
X148265000Y-108272500D01*
X149415500Y-110147600D02*
X148265000Y-108997100D01*
X148347000Y-113779600D02*
X150579000Y-111547600D01*
X149799000Y-110147600D02*
X149415500Y-110147600D01*
X145932300Y-114104000D02*
X146256700Y-113779600D01*
X137160000Y-113030000D02*
X141924600Y-113030000D01*
X142998600Y-114104000D02*
X145932300Y-114104000D01*
X147615000Y-108272500D02*
X147615000Y-105718100D01*
X147615000Y-105718100D02*
X147581200Y-105684300D01*
X146965000Y-108272500D02*
X146965000Y-107443000D01*
X146965000Y-107443000D02*
X146455400Y-106933400D01*
M02*
