G04 #@! TF.GenerationSoftware,KiCad,Pcbnew,(6.0.9)*
G04 #@! TF.CreationDate,2025-04-02T09:35:11+02:00*
G04 #@! TF.ProjectId,Sombrero_MSX_Goa'uld,536f6d62-7265-4726-9f5f-4d53585f476f,rev?*
G04 #@! TF.SameCoordinates,Original*
G04 #@! TF.FileFunction,Legend,Bot*
G04 #@! TF.FilePolarity,Positive*
%FSLAX46Y46*%
G04 Gerber Fmt 4.6, Leading zero omitted, Abs format (unit mm)*
G04 Created by KiCad (PCBNEW (6.0.9)) date 2025-04-02 09:35:11*
%MOMM*%
%LPD*%
G01*
G04 APERTURE LIST*
G04 Aperture macros list*
%AMRoundRect*
0 Rectangle with rounded corners*
0 $1 Rounding radius*
0 $2 $3 $4 $5 $6 $7 $8 $9 X,Y pos of 4 corners*
0 Add a 4 corners polygon primitive as box body*
4,1,4,$2,$3,$4,$5,$6,$7,$8,$9,$2,$3,0*
0 Add four circle primitives for the rounded corners*
1,1,$1+$1,$2,$3*
1,1,$1+$1,$4,$5*
1,1,$1+$1,$6,$7*
1,1,$1+$1,$8,$9*
0 Add four rect primitives between the rounded corners*
20,1,$1+$1,$2,$3,$4,$5,0*
20,1,$1+$1,$4,$5,$6,$7,0*
20,1,$1+$1,$6,$7,$8,$9,0*
20,1,$1+$1,$8,$9,$2,$3,0*%
G04 Aperture macros list end*
%ADD10C,0.150000*%
%ADD11C,0.120000*%
%ADD12R,2.400000X1.600000*%
%ADD13O,2.400000X1.600000*%
%ADD14R,1.600000X1.600000*%
%ADD15O,1.600000X1.600000*%
%ADD16RoundRect,0.100000X0.100000X-0.637500X0.100000X0.637500X-0.100000X0.637500X-0.100000X-0.637500X0*%
%ADD17RoundRect,0.100000X-0.100000X0.637500X-0.100000X-0.637500X0.100000X-0.637500X0.100000X0.637500X0*%
%ADD18RoundRect,0.250000X-0.475000X0.250000X-0.475000X-0.250000X0.475000X-0.250000X0.475000X0.250000X0*%
%ADD19R,0.500000X0.800000*%
%ADD20R,0.400000X0.800000*%
%ADD21R,1.200000X0.900000*%
%ADD22RoundRect,0.250000X0.475000X-0.250000X0.475000X0.250000X-0.475000X0.250000X-0.475000X-0.250000X0*%
%ADD23RoundRect,0.200000X-0.275000X0.200000X-0.275000X-0.200000X0.275000X-0.200000X0.275000X0.200000X0*%
G04 APERTURE END LIST*
D10*
X141057380Y-88138095D02*
X141866904Y-88138095D01*
X141962142Y-88185714D01*
X142009761Y-88233333D01*
X142057380Y-88328571D01*
X142057380Y-88519047D01*
X142009761Y-88614285D01*
X141962142Y-88661904D01*
X141866904Y-88709523D01*
X141057380Y-88709523D01*
X142057380Y-89709523D02*
X142057380Y-89138095D01*
X142057380Y-89423809D02*
X141057380Y-89423809D01*
X141200238Y-89328571D01*
X141295476Y-89233333D01*
X141343095Y-89138095D01*
X152360380Y-122428095D02*
X153169904Y-122428095D01*
X153265142Y-122475714D01*
X153312761Y-122523333D01*
X153360380Y-122618571D01*
X153360380Y-122809047D01*
X153312761Y-122904285D01*
X153265142Y-122951904D01*
X153169904Y-122999523D01*
X152360380Y-122999523D01*
X152360380Y-123951904D02*
X152360380Y-123475714D01*
X152836571Y-123428095D01*
X152788952Y-123475714D01*
X152741333Y-123570952D01*
X152741333Y-123809047D01*
X152788952Y-123904285D01*
X152836571Y-123951904D01*
X152931809Y-123999523D01*
X153169904Y-123999523D01*
X153265142Y-123951904D01*
X153312761Y-123904285D01*
X153360380Y-123809047D01*
X153360380Y-123570952D01*
X153312761Y-123475714D01*
X153265142Y-123428095D01*
X152487380Y-104648095D02*
X153296904Y-104648095D01*
X153392142Y-104695714D01*
X153439761Y-104743333D01*
X153487380Y-104838571D01*
X153487380Y-105029047D01*
X153439761Y-105124285D01*
X153392142Y-105171904D01*
X153296904Y-105219523D01*
X152487380Y-105219523D01*
X152487380Y-105600476D02*
X152487380Y-106219523D01*
X152868333Y-105886190D01*
X152868333Y-106029047D01*
X152915952Y-106124285D01*
X152963571Y-106171904D01*
X153058809Y-106219523D01*
X153296904Y-106219523D01*
X153392142Y-106171904D01*
X153439761Y-106124285D01*
X153487380Y-106029047D01*
X153487380Y-105743333D01*
X153439761Y-105648095D01*
X153392142Y-105600476D01*
X153265142Y-114133333D02*
X153312761Y-114085714D01*
X153360380Y-113942857D01*
X153360380Y-113847619D01*
X153312761Y-113704761D01*
X153217523Y-113609523D01*
X153122285Y-113561904D01*
X152931809Y-113514285D01*
X152788952Y-113514285D01*
X152598476Y-113561904D01*
X152503238Y-113609523D01*
X152408000Y-113704761D01*
X152360380Y-113847619D01*
X152360380Y-113942857D01*
X152408000Y-114085714D01*
X152455619Y-114133333D01*
X152693714Y-114990476D02*
X153360380Y-114990476D01*
X152312761Y-114752380D02*
X153027047Y-114514285D01*
X153027047Y-115133333D01*
X141057380Y-113538095D02*
X141866904Y-113538095D01*
X141962142Y-113585714D01*
X142009761Y-113633333D01*
X142057380Y-113728571D01*
X142057380Y-113919047D01*
X142009761Y-114014285D01*
X141962142Y-114061904D01*
X141866904Y-114109523D01*
X141057380Y-114109523D01*
X141390714Y-115014285D02*
X142057380Y-115014285D01*
X141009761Y-114776190D02*
X141724047Y-114538095D01*
X141724047Y-115157142D01*
X150979142Y-77303333D02*
X151026761Y-77255714D01*
X151074380Y-77112857D01*
X151074380Y-77017619D01*
X151026761Y-76874761D01*
X150931523Y-76779523D01*
X150836285Y-76731904D01*
X150645809Y-76684285D01*
X150502952Y-76684285D01*
X150312476Y-76731904D01*
X150217238Y-76779523D01*
X150122000Y-76874761D01*
X150074380Y-77017619D01*
X150074380Y-77112857D01*
X150122000Y-77255714D01*
X150169619Y-77303333D01*
X150074380Y-78160476D02*
X150074380Y-77970000D01*
X150122000Y-77874761D01*
X150169619Y-77827142D01*
X150312476Y-77731904D01*
X150502952Y-77684285D01*
X150883904Y-77684285D01*
X150979142Y-77731904D01*
X151026761Y-77779523D01*
X151074380Y-77874761D01*
X151074380Y-78065238D01*
X151026761Y-78160476D01*
X150979142Y-78208095D01*
X150883904Y-78255714D01*
X150645809Y-78255714D01*
X150550571Y-78208095D01*
X150502952Y-78160476D01*
X150455333Y-78065238D01*
X150455333Y-77874761D01*
X150502952Y-77779523D01*
X150550571Y-77731904D01*
X150645809Y-77684285D01*
X147375476Y-99512380D02*
X147708809Y-99036190D01*
X147946904Y-99512380D02*
X147946904Y-98512380D01*
X147565952Y-98512380D01*
X147470714Y-98560000D01*
X147423095Y-98607619D01*
X147375476Y-98702857D01*
X147375476Y-98845714D01*
X147423095Y-98940952D01*
X147470714Y-98988571D01*
X147565952Y-99036190D01*
X147946904Y-99036190D01*
X146946904Y-99512380D02*
X146946904Y-98512380D01*
X146375476Y-99512380D01*
X146375476Y-98512380D01*
X145375476Y-99512380D02*
X145946904Y-99512380D01*
X145661190Y-99512380D02*
X145661190Y-98512380D01*
X145756428Y-98655238D01*
X145851666Y-98750476D01*
X145946904Y-98798095D01*
X141962380Y-100861904D02*
X140962380Y-100861904D01*
X140962380Y-101100000D01*
X141010000Y-101242857D01*
X141105238Y-101338095D01*
X141200476Y-101385714D01*
X141390952Y-101433333D01*
X141533809Y-101433333D01*
X141724285Y-101385714D01*
X141819523Y-101338095D01*
X141914761Y-101242857D01*
X141962380Y-101100000D01*
X141962380Y-100861904D01*
X141962380Y-102385714D02*
X141962380Y-101814285D01*
X141962380Y-102100000D02*
X140962380Y-102100000D01*
X141105238Y-102004761D01*
X141200476Y-101909523D01*
X141248095Y-101814285D01*
X151820476Y-99512380D02*
X152153809Y-99036190D01*
X152391904Y-99512380D02*
X152391904Y-98512380D01*
X152010952Y-98512380D01*
X151915714Y-98560000D01*
X151868095Y-98607619D01*
X151820476Y-98702857D01*
X151820476Y-98845714D01*
X151868095Y-98940952D01*
X151915714Y-98988571D01*
X152010952Y-99036190D01*
X152391904Y-99036190D01*
X151391904Y-99512380D02*
X151391904Y-98512380D01*
X150820476Y-99512380D01*
X150820476Y-98512380D01*
X150391904Y-98607619D02*
X150344285Y-98560000D01*
X150249047Y-98512380D01*
X150010952Y-98512380D01*
X149915714Y-98560000D01*
X149868095Y-98607619D01*
X149820476Y-98702857D01*
X149820476Y-98798095D01*
X149868095Y-98940952D01*
X150439523Y-99512380D01*
X149820476Y-99512380D01*
X142089142Y-122769333D02*
X142136761Y-122721714D01*
X142184380Y-122578857D01*
X142184380Y-122483619D01*
X142136761Y-122340761D01*
X142041523Y-122245523D01*
X141946285Y-122197904D01*
X141755809Y-122150285D01*
X141612952Y-122150285D01*
X141422476Y-122197904D01*
X141327238Y-122245523D01*
X141232000Y-122340761D01*
X141184380Y-122483619D01*
X141184380Y-122578857D01*
X141232000Y-122721714D01*
X141279619Y-122769333D01*
X141184380Y-123674095D02*
X141184380Y-123197904D01*
X141660571Y-123150285D01*
X141612952Y-123197904D01*
X141565333Y-123293142D01*
X141565333Y-123531238D01*
X141612952Y-123626476D01*
X141660571Y-123674095D01*
X141755809Y-123721714D01*
X141993904Y-123721714D01*
X142089142Y-123674095D01*
X142136761Y-123626476D01*
X142184380Y-123531238D01*
X142184380Y-123293142D01*
X142136761Y-123197904D01*
X142089142Y-123150285D01*
X142089142Y-106513333D02*
X142136761Y-106465714D01*
X142184380Y-106322857D01*
X142184380Y-106227619D01*
X142136761Y-106084761D01*
X142041523Y-105989523D01*
X141946285Y-105941904D01*
X141755809Y-105894285D01*
X141612952Y-105894285D01*
X141422476Y-105941904D01*
X141327238Y-105989523D01*
X141232000Y-106084761D01*
X141184380Y-106227619D01*
X141184380Y-106322857D01*
X141232000Y-106465714D01*
X141279619Y-106513333D01*
X141184380Y-106846666D02*
X141184380Y-107465714D01*
X141565333Y-107132380D01*
X141565333Y-107275238D01*
X141612952Y-107370476D01*
X141660571Y-107418095D01*
X141755809Y-107465714D01*
X141993904Y-107465714D01*
X142089142Y-107418095D01*
X142136761Y-107370476D01*
X142184380Y-107275238D01*
X142184380Y-106989523D01*
X142136761Y-106894285D01*
X142089142Y-106846666D01*
X153265142Y-88733333D02*
X153312761Y-88685714D01*
X153360380Y-88542857D01*
X153360380Y-88447619D01*
X153312761Y-88304761D01*
X153217523Y-88209523D01*
X153122285Y-88161904D01*
X152931809Y-88114285D01*
X152788952Y-88114285D01*
X152598476Y-88161904D01*
X152503238Y-88209523D01*
X152408000Y-88304761D01*
X152360380Y-88447619D01*
X152360380Y-88542857D01*
X152408000Y-88685714D01*
X152455619Y-88733333D01*
X153360380Y-89685714D02*
X153360380Y-89114285D01*
X153360380Y-89400000D02*
X152360380Y-89400000D01*
X152503238Y-89304761D01*
X152598476Y-89209523D01*
X152646095Y-89114285D01*
X153265142Y-81113333D02*
X153312761Y-81065714D01*
X153360380Y-80922857D01*
X153360380Y-80827619D01*
X153312761Y-80684761D01*
X153217523Y-80589523D01*
X153122285Y-80541904D01*
X152931809Y-80494285D01*
X152788952Y-80494285D01*
X152598476Y-80541904D01*
X152503238Y-80589523D01*
X152408000Y-80684761D01*
X152360380Y-80827619D01*
X152360380Y-80922857D01*
X152408000Y-81065714D01*
X152455619Y-81113333D01*
X152455619Y-81494285D02*
X152408000Y-81541904D01*
X152360380Y-81637142D01*
X152360380Y-81875238D01*
X152408000Y-81970476D01*
X152455619Y-82018095D01*
X152550857Y-82065714D01*
X152646095Y-82065714D01*
X152788952Y-82018095D01*
X153360380Y-81446666D01*
X153360380Y-82065714D01*
X141057380Y-77978095D02*
X141866904Y-77978095D01*
X141962142Y-78025714D01*
X142009761Y-78073333D01*
X142057380Y-78168571D01*
X142057380Y-78359047D01*
X142009761Y-78454285D01*
X141962142Y-78501904D01*
X141866904Y-78549523D01*
X141057380Y-78549523D01*
X141152619Y-78978095D02*
X141105000Y-79025714D01*
X141057380Y-79120952D01*
X141057380Y-79359047D01*
X141105000Y-79454285D01*
X141152619Y-79501904D01*
X141247857Y-79549523D01*
X141343095Y-79549523D01*
X141485952Y-79501904D01*
X142057380Y-78930476D01*
X142057380Y-79549523D01*
X141897380Y-96353333D02*
X141421190Y-96020000D01*
X141897380Y-95781904D02*
X140897380Y-95781904D01*
X140897380Y-96162857D01*
X140945000Y-96258095D01*
X140992619Y-96305714D01*
X141087857Y-96353333D01*
X141230714Y-96353333D01*
X141325952Y-96305714D01*
X141373571Y-96258095D01*
X141421190Y-96162857D01*
X141421190Y-95781904D01*
X141897380Y-97305714D02*
X141897380Y-96734285D01*
X141897380Y-97020000D02*
X140897380Y-97020000D01*
X141040238Y-96924761D01*
X141135476Y-96829523D01*
X141183095Y-96734285D01*
D11*
X142665000Y-88900000D02*
X142665000Y-86700000D01*
X142665000Y-88900000D02*
X142665000Y-91100000D01*
X149435000Y-88900000D02*
X149435000Y-92500000D01*
X149435000Y-88900000D02*
X149435000Y-86700000D01*
X151975000Y-123190000D02*
X151975000Y-125390000D01*
X151975000Y-123190000D02*
X151975000Y-120990000D01*
X145205000Y-123190000D02*
X145205000Y-125390000D01*
X145205000Y-123190000D02*
X145205000Y-119590000D01*
X145205000Y-105410000D02*
X145205000Y-101810000D01*
X145205000Y-105410000D02*
X145205000Y-107610000D01*
X151975000Y-105410000D02*
X151975000Y-103210000D01*
X151975000Y-105410000D02*
X151975000Y-107610000D01*
X150395000Y-114038748D02*
X150395000Y-114561252D01*
X151865000Y-114038748D02*
X151865000Y-114561252D01*
X149435000Y-114300000D02*
X149435000Y-112100000D01*
X142665000Y-114300000D02*
X142665000Y-116500000D01*
X142665000Y-114300000D02*
X142665000Y-112100000D01*
X149435000Y-114300000D02*
X149435000Y-117900000D01*
X151665000Y-77208748D02*
X151665000Y-77731252D01*
X153135000Y-77208748D02*
X153135000Y-77731252D01*
X145005000Y-97020000D02*
X145005000Y-96020000D01*
X148365000Y-97020000D02*
X148365000Y-96020000D01*
X142510000Y-99350000D02*
X142510000Y-103250000D01*
X142510000Y-99350000D02*
X144510000Y-99350000D01*
X144510000Y-99350000D02*
X144510000Y-103250000D01*
X149450000Y-97020000D02*
X149450000Y-96020000D01*
X152810000Y-97020000D02*
X152810000Y-96020000D01*
X142775000Y-123451252D02*
X142775000Y-122928748D01*
X144245000Y-123451252D02*
X144245000Y-122928748D01*
X144245000Y-106418748D02*
X144245000Y-106941252D01*
X142775000Y-106418748D02*
X142775000Y-106941252D01*
X151865000Y-88638748D02*
X151865000Y-89161252D01*
X150395000Y-88638748D02*
X150395000Y-89161252D01*
X150395000Y-81018748D02*
X150395000Y-81541252D01*
X151865000Y-81018748D02*
X151865000Y-81541252D01*
X149435000Y-78740000D02*
X149435000Y-82340000D01*
X149435000Y-78740000D02*
X149435000Y-76540000D01*
X142665000Y-78740000D02*
X142665000Y-80940000D01*
X142665000Y-78740000D02*
X142665000Y-76540000D01*
X142352500Y-96282742D02*
X142352500Y-96757258D01*
X143397500Y-96282742D02*
X143397500Y-96757258D01*
%LPC*%
D12*
X137160000Y-77470000D03*
D13*
X137160000Y-80010000D03*
X137160000Y-82550000D03*
X137160000Y-85090000D03*
X137160000Y-87630000D03*
X137160000Y-90170000D03*
X137160000Y-92710000D03*
X137160000Y-95250000D03*
X137160000Y-97790000D03*
X137160000Y-100330000D03*
X137160000Y-102870000D03*
X137160000Y-105410000D03*
X137160000Y-107950000D03*
X137160000Y-110490000D03*
X137160000Y-113030000D03*
X137160000Y-115570000D03*
X137160000Y-118110000D03*
X137160000Y-120650000D03*
X137160000Y-123190000D03*
X137160000Y-125730000D03*
X157480000Y-125730000D03*
X157480000Y-123190000D03*
X157480000Y-120650000D03*
X157480000Y-118110000D03*
X157480000Y-115570000D03*
X157480000Y-113030000D03*
X157480000Y-110490000D03*
X157480000Y-107950000D03*
X157480000Y-105410000D03*
X157480000Y-102870000D03*
X157480000Y-100330000D03*
X157480000Y-97790000D03*
X157480000Y-95250000D03*
X157480000Y-92710000D03*
X157480000Y-90170000D03*
X157480000Y-87630000D03*
X157480000Y-85090000D03*
X157480000Y-82550000D03*
X157480000Y-80010000D03*
X157480000Y-77470000D03*
D14*
X139710000Y-76200000D03*
D15*
X139710000Y-78740000D03*
X139710000Y-81280000D03*
X139710000Y-83820000D03*
X139710000Y-86360000D03*
X139710000Y-88900000D03*
X139710000Y-91440000D03*
X139710000Y-93980000D03*
X139710000Y-96520000D03*
X139710000Y-99060000D03*
X139710000Y-101600000D03*
X139710000Y-104140000D03*
X139710000Y-106680000D03*
X139710000Y-109220000D03*
X139710000Y-111760000D03*
X139710000Y-114300000D03*
X139710000Y-116840000D03*
X139710000Y-119380000D03*
X139710000Y-121920000D03*
X139710000Y-124460000D03*
X154950000Y-124460000D03*
X154950000Y-121920000D03*
X154950000Y-119380000D03*
X154950000Y-116840000D03*
X154950000Y-114300000D03*
X154950000Y-111760000D03*
X154950000Y-109220000D03*
X154950000Y-106680000D03*
X154950000Y-104140000D03*
X154950000Y-101600000D03*
X154950000Y-99060000D03*
X154950000Y-96520000D03*
X154950000Y-93980000D03*
X154950000Y-91440000D03*
X154950000Y-88900000D03*
X154950000Y-86360000D03*
X154950000Y-83820000D03*
X154950000Y-81280000D03*
X154950000Y-78740000D03*
X154950000Y-76200000D03*
D16*
X148975000Y-91762500D03*
X148325000Y-91762500D03*
X147675000Y-91762500D03*
X147025000Y-91762500D03*
X146375000Y-91762500D03*
X145725000Y-91762500D03*
X145075000Y-91762500D03*
X144425000Y-91762500D03*
X143775000Y-91762500D03*
X143125000Y-91762500D03*
X143125000Y-86037500D03*
X143775000Y-86037500D03*
X144425000Y-86037500D03*
X145075000Y-86037500D03*
X145725000Y-86037500D03*
X146375000Y-86037500D03*
X147025000Y-86037500D03*
X147675000Y-86037500D03*
X148325000Y-86037500D03*
X148975000Y-86037500D03*
D17*
X145665000Y-120327500D03*
X146315000Y-120327500D03*
X146965000Y-120327500D03*
X147615000Y-120327500D03*
X148265000Y-120327500D03*
X148915000Y-120327500D03*
X149565000Y-120327500D03*
X150215000Y-120327500D03*
X150865000Y-120327500D03*
X151515000Y-120327500D03*
X151515000Y-126052500D03*
X150865000Y-126052500D03*
X150215000Y-126052500D03*
X149565000Y-126052500D03*
X148915000Y-126052500D03*
X148265000Y-126052500D03*
X147615000Y-126052500D03*
X146965000Y-126052500D03*
X146315000Y-126052500D03*
X145665000Y-126052500D03*
X145665000Y-102547500D03*
X146315000Y-102547500D03*
X146965000Y-102547500D03*
X147615000Y-102547500D03*
X148265000Y-102547500D03*
X148915000Y-102547500D03*
X149565000Y-102547500D03*
X150215000Y-102547500D03*
X150865000Y-102547500D03*
X151515000Y-102547500D03*
X151515000Y-108272500D03*
X150865000Y-108272500D03*
X150215000Y-108272500D03*
X149565000Y-108272500D03*
X148915000Y-108272500D03*
X148265000Y-108272500D03*
X147615000Y-108272500D03*
X146965000Y-108272500D03*
X146315000Y-108272500D03*
X145665000Y-108272500D03*
D18*
X151130000Y-113350000D03*
X151130000Y-115250000D03*
D16*
X148975000Y-117162500D03*
X148325000Y-117162500D03*
X147675000Y-117162500D03*
X147025000Y-117162500D03*
X146375000Y-117162500D03*
X145725000Y-117162500D03*
X145075000Y-117162500D03*
X144425000Y-117162500D03*
X143775000Y-117162500D03*
X143125000Y-117162500D03*
X143125000Y-111437500D03*
X143775000Y-111437500D03*
X144425000Y-111437500D03*
X145075000Y-111437500D03*
X145725000Y-111437500D03*
X146375000Y-111437500D03*
X147025000Y-111437500D03*
X147675000Y-111437500D03*
X148325000Y-111437500D03*
X148975000Y-111437500D03*
D18*
X152400000Y-76520000D03*
X152400000Y-78420000D03*
D19*
X145485000Y-95620000D03*
D20*
X146285000Y-95620000D03*
X147085000Y-95620000D03*
D19*
X147885000Y-95620000D03*
X147885000Y-97420000D03*
D20*
X147085000Y-97420000D03*
X146285000Y-97420000D03*
D19*
X145485000Y-97420000D03*
D21*
X143510000Y-99950000D03*
X143510000Y-103250000D03*
D19*
X149930000Y-95620000D03*
D20*
X150730000Y-95620000D03*
X151530000Y-95620000D03*
D19*
X152330000Y-95620000D03*
X152330000Y-97420000D03*
D20*
X151530000Y-97420000D03*
X150730000Y-97420000D03*
D19*
X149930000Y-97420000D03*
D22*
X143510000Y-124140000D03*
X143510000Y-122240000D03*
D18*
X143510000Y-105730000D03*
X143510000Y-107630000D03*
X151130000Y-87950000D03*
X151130000Y-89850000D03*
X151130000Y-80330000D03*
X151130000Y-82230000D03*
D16*
X148975000Y-81602500D03*
X148325000Y-81602500D03*
X147675000Y-81602500D03*
X147025000Y-81602500D03*
X146375000Y-81602500D03*
X145725000Y-81602500D03*
X145075000Y-81602500D03*
X144425000Y-81602500D03*
X143775000Y-81602500D03*
X143125000Y-81602500D03*
X143125000Y-75877500D03*
X143775000Y-75877500D03*
X144425000Y-75877500D03*
X145075000Y-75877500D03*
X145725000Y-75877500D03*
X146375000Y-75877500D03*
X147025000Y-75877500D03*
X147675000Y-75877500D03*
X148325000Y-75877500D03*
X148975000Y-75877500D03*
D23*
X142875000Y-95695000D03*
X142875000Y-97345000D03*
M02*
