G04 #@! TF.GenerationSoftware,KiCad,Pcbnew,(6.0.9)*
G04 #@! TF.CreationDate,2025-04-02T09:35:11+02:00*
G04 #@! TF.ProjectId,Sombrero_MSX_Goa'uld,536f6d62-7265-4726-9f5f-4d53585f476f,rev?*
G04 #@! TF.SameCoordinates,Original*
G04 #@! TF.FileFunction,Legend,Top*
G04 #@! TF.FilePolarity,Positive*
%FSLAX46Y46*%
G04 Gerber Fmt 4.6, Leading zero omitted, Abs format (unit mm)*
G04 Created by KiCad (PCBNEW (6.0.9)) date 2025-04-02 09:35:11*
%MOMM*%
%LPD*%
G01*
G04 APERTURE LIST*
%ADD10C,0.150000*%
%ADD11C,0.120000*%
%ADD12C,0.100000*%
%ADD13R,2.400000X1.600000*%
%ADD14O,2.400000X1.600000*%
%ADD15R,1.600000X1.600000*%
%ADD16O,1.600000X1.600000*%
G04 APERTURE END LIST*
D10*
X142327142Y-73464000D02*
X142241428Y-73421142D01*
X142112857Y-73421142D01*
X141984285Y-73464000D01*
X141898571Y-73549714D01*
X141855714Y-73635428D01*
X141812857Y-73806857D01*
X141812857Y-73935428D01*
X141855714Y-74106857D01*
X141898571Y-74192571D01*
X141984285Y-74278285D01*
X142112857Y-74321142D01*
X142198571Y-74321142D01*
X142327142Y-74278285D01*
X142370000Y-74235428D01*
X142370000Y-73935428D01*
X142198571Y-73935428D01*
X142884285Y-74321142D02*
X142798571Y-74278285D01*
X142755714Y-74235428D01*
X142712857Y-74149714D01*
X142712857Y-73892571D01*
X142755714Y-73806857D01*
X142798571Y-73764000D01*
X142884285Y-73721142D01*
X143012857Y-73721142D01*
X143098571Y-73764000D01*
X143141428Y-73806857D01*
X143184285Y-73892571D01*
X143184285Y-74149714D01*
X143141428Y-74235428D01*
X143098571Y-74278285D01*
X143012857Y-74321142D01*
X142884285Y-74321142D01*
X143955714Y-74321142D02*
X143955714Y-73849714D01*
X143912857Y-73764000D01*
X143827142Y-73721142D01*
X143655714Y-73721142D01*
X143570000Y-73764000D01*
X143955714Y-74278285D02*
X143870000Y-74321142D01*
X143655714Y-74321142D01*
X143570000Y-74278285D01*
X143527142Y-74192571D01*
X143527142Y-74106857D01*
X143570000Y-74021142D01*
X143655714Y-73978285D01*
X143870000Y-73978285D01*
X143955714Y-73935428D01*
X144427142Y-73421142D02*
X144341428Y-73592571D01*
X145198571Y-73721142D02*
X145198571Y-74321142D01*
X144812857Y-73721142D02*
X144812857Y-74192571D01*
X144855714Y-74278285D01*
X144941428Y-74321142D01*
X145070000Y-74321142D01*
X145155714Y-74278285D01*
X145198571Y-74235428D01*
X145755714Y-74321142D02*
X145670000Y-74278285D01*
X145627142Y-74192571D01*
X145627142Y-73421142D01*
X146484285Y-74321142D02*
X146484285Y-73421142D01*
X146484285Y-74278285D02*
X146398571Y-74321142D01*
X146227142Y-74321142D01*
X146141428Y-74278285D01*
X146098571Y-74235428D01*
X146055714Y-74149714D01*
X146055714Y-73892571D01*
X146098571Y-73806857D01*
X146141428Y-73764000D01*
X146227142Y-73721142D01*
X146398571Y-73721142D01*
X146484285Y-73764000D01*
X148070000Y-74321142D02*
X147555714Y-74321142D01*
X147812857Y-74321142D02*
X147812857Y-73421142D01*
X147727142Y-73549714D01*
X147641428Y-73635428D01*
X147555714Y-73678285D01*
X148455714Y-74235428D02*
X148498571Y-74278285D01*
X148455714Y-74321142D01*
X148412857Y-74278285D01*
X148455714Y-74235428D01*
X148455714Y-74321142D01*
X149312857Y-73421142D02*
X148884285Y-73421142D01*
X148841428Y-73849714D01*
X148884285Y-73806857D01*
X148970000Y-73764000D01*
X149184285Y-73764000D01*
X149270000Y-73806857D01*
X149312857Y-73849714D01*
X149355714Y-73935428D01*
X149355714Y-74149714D01*
X149312857Y-74235428D01*
X149270000Y-74278285D01*
X149184285Y-74321142D01*
X148970000Y-74321142D01*
X148884285Y-74278285D01*
X148841428Y-74235428D01*
X150384285Y-74278285D02*
X150512857Y-74321142D01*
X150727142Y-74321142D01*
X150812857Y-74278285D01*
X150855714Y-74235428D01*
X150898571Y-74149714D01*
X150898571Y-74064000D01*
X150855714Y-73978285D01*
X150812857Y-73935428D01*
X150727142Y-73892571D01*
X150555714Y-73849714D01*
X150470000Y-73806857D01*
X150427142Y-73764000D01*
X150384285Y-73678285D01*
X150384285Y-73592571D01*
X150427142Y-73506857D01*
X150470000Y-73464000D01*
X150555714Y-73421142D01*
X150770000Y-73421142D01*
X150898571Y-73464000D01*
X151284285Y-74321142D02*
X151284285Y-73421142D01*
X151584285Y-74064000D01*
X151884285Y-73421142D01*
X151884285Y-74321142D01*
X152312857Y-74321142D02*
X152312857Y-73421142D01*
X152527142Y-73421142D01*
X152655714Y-73464000D01*
X152741428Y-73549714D01*
X152784285Y-73635428D01*
X152827142Y-73806857D01*
X152827142Y-73935428D01*
X152784285Y-74106857D01*
X152741428Y-74192571D01*
X152655714Y-74278285D01*
X152527142Y-74321142D01*
X152312857Y-74321142D01*
X145884285Y-128042142D02*
X145884285Y-127142142D01*
X145884285Y-127570714D02*
X146398571Y-127570714D01*
X146398571Y-128042142D02*
X146398571Y-127142142D01*
X146827142Y-128042142D02*
X146827142Y-127142142D01*
X147041428Y-127142142D01*
X147170000Y-127185000D01*
X147255714Y-127270714D01*
X147298571Y-127356428D01*
X147341428Y-127527857D01*
X147341428Y-127656428D01*
X147298571Y-127827857D01*
X147255714Y-127913571D01*
X147170000Y-127999285D01*
X147041428Y-128042142D01*
X146827142Y-128042142D01*
X147727142Y-128042142D02*
X147727142Y-127142142D01*
X148027142Y-127785000D01*
X148327142Y-127142142D01*
X148327142Y-128042142D01*
X148755714Y-128042142D02*
X148755714Y-127142142D01*
X136383095Y-74737980D02*
X136383095Y-75547504D01*
X136430714Y-75642742D01*
X136478333Y-75690361D01*
X136573571Y-75737980D01*
X136764047Y-75737980D01*
X136859285Y-75690361D01*
X136906904Y-75642742D01*
X136954523Y-75547504D01*
X136954523Y-74737980D01*
X137859285Y-74737980D02*
X137668809Y-74737980D01*
X137573571Y-74785600D01*
X137525952Y-74833219D01*
X137430714Y-74976076D01*
X137383095Y-75166552D01*
X137383095Y-75547504D01*
X137430714Y-75642742D01*
X137478333Y-75690361D01*
X137573571Y-75737980D01*
X137764047Y-75737980D01*
X137859285Y-75690361D01*
X137906904Y-75642742D01*
X137954523Y-75547504D01*
X137954523Y-75309409D01*
X137906904Y-75214171D01*
X137859285Y-75166552D01*
X137764047Y-75118933D01*
X137573571Y-75118933D01*
X137478333Y-75166552D01*
X137430714Y-75214171D01*
X137383095Y-75309409D01*
X141906666Y-74991980D02*
X141906666Y-75706266D01*
X141859047Y-75849123D01*
X141763809Y-75944361D01*
X141620952Y-75991980D01*
X141525714Y-75991980D01*
X142906666Y-75991980D02*
X142335238Y-75991980D01*
X142620952Y-75991980D02*
X142620952Y-74991980D01*
X142525714Y-75134838D01*
X142430476Y-75230076D01*
X142335238Y-75277695D01*
D11*
X154940000Y-130810000D02*
X154940000Y-128270000D01*
D12*
X135890000Y-127000000D02*
X158750000Y-127000000D01*
D11*
X138720000Y-76140000D02*
X138720000Y-127000000D01*
X144780000Y-76140000D02*
X144780000Y-74930000D01*
X139700000Y-130810000D02*
X154940000Y-130810000D01*
X144780000Y-74930000D02*
X149860000Y-74930000D01*
X155920000Y-76140000D02*
X150860000Y-76140000D01*
X139700000Y-128270000D02*
X139700000Y-130810000D01*
X135720000Y-128270000D02*
X158920000Y-128270000D01*
X149860000Y-74930000D02*
X149860000Y-76073000D01*
X153670000Y-76140000D02*
X138720000Y-76140000D01*
X135720000Y-76080000D02*
X135720000Y-128270000D01*
X158920000Y-76080000D02*
X135720000Y-76080000D01*
X155920000Y-127000000D02*
X155920000Y-76140000D01*
X158920000Y-128270000D02*
X158920000Y-76080000D01*
X140870000Y-125790000D02*
X153790000Y-125790000D01*
X153790000Y-74870000D02*
X148330000Y-74870000D01*
X138380000Y-125850000D02*
X156280000Y-125850000D01*
X138380000Y-74810000D02*
X138380000Y-125850000D01*
X156280000Y-74810000D02*
X138380000Y-74810000D01*
X156280000Y-125850000D02*
X156280000Y-74810000D01*
X153790000Y-125790000D02*
X153790000Y-74870000D01*
X140870000Y-74870000D02*
X140870000Y-125790000D01*
X146330000Y-74870000D02*
X140870000Y-74870000D01*
X146330000Y-74870000D02*
G75*
G03*
X148330000Y-74870000I1000000J0D01*
G01*
%LPC*%
D13*
X137160000Y-77470000D03*
D14*
X137160000Y-80010000D03*
X137160000Y-82550000D03*
X137160000Y-85090000D03*
X137160000Y-87630000D03*
X137160000Y-90170000D03*
X137160000Y-92710000D03*
X137160000Y-95250000D03*
X137160000Y-97790000D03*
X137160000Y-100330000D03*
X137160000Y-102870000D03*
X137160000Y-105410000D03*
X137160000Y-107950000D03*
X137160000Y-110490000D03*
X137160000Y-113030000D03*
X137160000Y-115570000D03*
X137160000Y-118110000D03*
X137160000Y-120650000D03*
X137160000Y-123190000D03*
X137160000Y-125730000D03*
X157480000Y-125730000D03*
X157480000Y-123190000D03*
X157480000Y-120650000D03*
X157480000Y-118110000D03*
X157480000Y-115570000D03*
X157480000Y-113030000D03*
X157480000Y-110490000D03*
X157480000Y-107950000D03*
X157480000Y-105410000D03*
X157480000Y-102870000D03*
X157480000Y-100330000D03*
X157480000Y-97790000D03*
X157480000Y-95250000D03*
X157480000Y-92710000D03*
X157480000Y-90170000D03*
X157480000Y-87630000D03*
X157480000Y-85090000D03*
X157480000Y-82550000D03*
X157480000Y-80010000D03*
X157480000Y-77470000D03*
D15*
X139710000Y-76200000D03*
D16*
X139710000Y-78740000D03*
X139710000Y-81280000D03*
X139710000Y-83820000D03*
X139710000Y-86360000D03*
X139710000Y-88900000D03*
X139710000Y-91440000D03*
X139710000Y-93980000D03*
X139710000Y-96520000D03*
X139710000Y-99060000D03*
X139710000Y-101600000D03*
X139710000Y-104140000D03*
X139710000Y-106680000D03*
X139710000Y-109220000D03*
X139710000Y-111760000D03*
X139710000Y-114300000D03*
X139710000Y-116840000D03*
X139710000Y-119380000D03*
X139710000Y-121920000D03*
X139710000Y-124460000D03*
X154950000Y-124460000D03*
X154950000Y-121920000D03*
X154950000Y-119380000D03*
X154950000Y-116840000D03*
X154950000Y-114300000D03*
X154950000Y-111760000D03*
X154950000Y-109220000D03*
X154950000Y-106680000D03*
X154950000Y-104140000D03*
X154950000Y-101600000D03*
X154950000Y-99060000D03*
X154950000Y-96520000D03*
X154950000Y-93980000D03*
X154950000Y-91440000D03*
X154950000Y-88900000D03*
X154950000Y-86360000D03*
X154950000Y-83820000D03*
X154950000Y-81280000D03*
X154950000Y-78740000D03*
X154950000Y-76200000D03*
M02*
