M48
; DRILL file {KiCad (6.0.9)} date Wed Apr  2 09:35:15 2025
; FORMAT={-:-/ absolute / metric / decimal}
; #@! TF.CreationDate,2025-04-02T09:35:15+02:00
; #@! TF.GenerationSoftware,Kicad,Pcbnew,(6.0.9)
; #@! TF.FileFunction,Plated,1,4,PTH
FMAT,2
METRIC
; #@! TA.AperFunction,Plated,PTH,ViaDrill
T1C0.400
; #@! TA.AperFunction,Plated,PTH,ComponentDrill
T2C0.800
%
G90
G05
T1
X141.873Y-90.291
X143.463Y-84.663
X143.663Y-112.816
X144.037Y-90.345
X144.26Y-80.215
X144.424Y-88.793
X144.425Y-115.797
X144.426Y-74.526
X144.853Y-119.75
X144.988Y-84.674
X145.165Y-112.779
X145.374Y-106.929
X145.451Y-88.453
X145.562Y-101.014
X145.748Y-94.102
X146.315Y-121.702
X146.339Y-124.685
X146.394Y-83.453
X146.455Y-106.933
X146.738Y-79.728
X146.768Y-101.167
X146.801Y-90.404
X146.993Y-93.771
X147.289Y-84.533
X147.581Y-105.684
X147.628Y-87.382
X147.842Y-82.947
X147.869Y-112.79
X148.07Y-98.487
X148.501Y-115.125
X148.813Y-106.919
X148.834Y-104.992
X148.939Y-95.721
X149.008Y-121.802
X149.07Y-98.284
X149.432Y-89.902
X149.477Y-105.764
X149.612Y-80.497
X149.64Y-99.512
X149.777Y-111.269
X149.819Y-85.457
X150.008Y-121.671
X150.359Y-100.446
X150.777Y-116.353
X150.827Y-92.792
X151.009Y-106.176
X151.217Y-105.175
X151.845Y-93.337
X152.194Y-124.966
T2
X137.16Y-77.47
X137.16Y-80.01
X137.16Y-82.55
X137.16Y-85.09
X137.16Y-87.63
X137.16Y-90.17
X137.16Y-92.71
X137.16Y-95.25
X137.16Y-97.79
X137.16Y-100.33
X137.16Y-102.87
X137.16Y-105.41
X137.16Y-107.95
X137.16Y-110.49
X137.16Y-113.03
X137.16Y-115.57
X137.16Y-118.11
X137.16Y-120.65
X137.16Y-123.19
X137.16Y-125.73
X139.71Y-76.2
X139.71Y-78.74
X139.71Y-81.28
X139.71Y-83.82
X139.71Y-86.36
X139.71Y-88.9
X139.71Y-91.44
X139.71Y-93.98
X139.71Y-96.52
X139.71Y-99.06
X139.71Y-101.6
X139.71Y-104.14
X139.71Y-106.68
X139.71Y-109.22
X139.71Y-111.76
X139.71Y-114.3
X139.71Y-116.84
X139.71Y-119.38
X139.71Y-121.92
X139.71Y-124.46
X154.95Y-76.2
X154.95Y-78.74
X154.95Y-81.28
X154.95Y-83.82
X154.95Y-86.36
X154.95Y-88.9
X154.95Y-91.44
X154.95Y-93.98
X154.95Y-96.52
X154.95Y-99.06
X154.95Y-101.6
X154.95Y-104.14
X154.95Y-106.68
X154.95Y-109.22
X154.95Y-111.76
X154.95Y-114.3
X154.95Y-116.84
X154.95Y-119.38
X154.95Y-121.92
X154.95Y-124.46
X157.48Y-77.47
X157.48Y-80.01
X157.48Y-82.55
X157.48Y-85.09
X157.48Y-87.63
X157.48Y-90.17
X157.48Y-92.71
X157.48Y-95.25
X157.48Y-97.79
X157.48Y-100.33
X157.48Y-102.87
X157.48Y-105.41
X157.48Y-107.95
X157.48Y-110.49
X157.48Y-113.03
X157.48Y-115.57
X157.48Y-118.11
X157.48Y-120.65
X157.48Y-123.19
X157.48Y-125.73
T0
M30
