%TF.GenerationSoftware,KiCad,Pcbnew,(6.0.9)*%
%TF.CreationDate,2025-04-02T09:35:17+02:00*%
%TF.ProjectId,Sombrero_MSX_Goa'uld,536f6d62-7265-4726-9f5f-4d53585f476f,rev?*%
%TF.SameCoordinates,Original*%
%TF.FileFunction,Drillmap*%
%TF.FilePolarity,Positive*%
%FSLAX45Y45*%
G04 Gerber Fmt 4.5, Leading zero omitted, Abs format (unit mm)*
G04 Created by KiCad (PCBNEW (6.0.9)) date 2025-04-02 09:35:17*
%MOMM*%
%LPD*%
G01*
G04 APERTURE LIST*
%ADD10C,0.050000*%
%ADD11C,0.200000*%
G04 APERTURE END LIST*
D10*
X13398500Y-7302500D02*
X16065500Y-7302500D01*
X16065500Y-7302500D02*
X16065500Y-12827000D01*
X16065500Y-12827000D02*
X13398500Y-12827000D01*
X13398500Y-12827000D02*
X13398500Y-7302500D01*
D11*
X13653619Y-13139976D02*
X13653619Y-12939976D01*
X13701238Y-12939976D01*
X13729809Y-12949500D01*
X13748857Y-12968548D01*
X13758381Y-12987595D01*
X13767905Y-13025690D01*
X13767905Y-13054262D01*
X13758381Y-13092357D01*
X13748857Y-13111405D01*
X13729809Y-13130452D01*
X13701238Y-13139976D01*
X13653619Y-13139976D01*
X13853619Y-13139976D02*
X13853619Y-13006643D01*
X13853619Y-13044738D02*
X13863143Y-13025690D01*
X13872667Y-13016167D01*
X13891714Y-13006643D01*
X13910762Y-13006643D01*
X13977428Y-13139976D02*
X13977428Y-13006643D01*
X13977428Y-12939976D02*
X13967905Y-12949500D01*
X13977428Y-12959024D01*
X13986952Y-12949500D01*
X13977428Y-12939976D01*
X13977428Y-12959024D01*
X14101238Y-13139976D02*
X14082190Y-13130452D01*
X14072667Y-13111405D01*
X14072667Y-12939976D01*
X14206000Y-13139976D02*
X14186952Y-13130452D01*
X14177428Y-13111405D01*
X14177428Y-12939976D01*
X14434571Y-13139976D02*
X14434571Y-12939976D01*
X14501238Y-13082833D01*
X14567905Y-12939976D01*
X14567905Y-13139976D01*
X14748857Y-13139976D02*
X14748857Y-13035214D01*
X14739333Y-13016167D01*
X14720286Y-13006643D01*
X14682190Y-13006643D01*
X14663143Y-13016167D01*
X14748857Y-13130452D02*
X14729809Y-13139976D01*
X14682190Y-13139976D01*
X14663143Y-13130452D01*
X14653619Y-13111405D01*
X14653619Y-13092357D01*
X14663143Y-13073309D01*
X14682190Y-13063786D01*
X14729809Y-13063786D01*
X14748857Y-13054262D01*
X14844095Y-13006643D02*
X14844095Y-13206643D01*
X14844095Y-13016167D02*
X14863143Y-13006643D01*
X14901238Y-13006643D01*
X14920286Y-13016167D01*
X14929809Y-13025690D01*
X14939333Y-13044738D01*
X14939333Y-13101881D01*
X14929809Y-13120928D01*
X14920286Y-13130452D01*
X14901238Y-13139976D01*
X14863143Y-13139976D01*
X14844095Y-13130452D01*
X15025048Y-13120928D02*
X15034571Y-13130452D01*
X15025048Y-13139976D01*
X15015524Y-13130452D01*
X15025048Y-13120928D01*
X15025048Y-13139976D01*
X15025048Y-13016167D02*
X15034571Y-13025690D01*
X15025048Y-13035214D01*
X15015524Y-13025690D01*
X15025048Y-13016167D01*
X15025048Y-13035214D01*
M02*
