G04 #@! TF.GenerationSoftware,KiCad,Pcbnew,(6.0.9)*
G04 #@! TF.CreationDate,2025-04-02T09:35:11+02:00*
G04 #@! TF.ProjectId,Sombrero_MSX_Goa'uld,536f6d62-7265-4726-9f5f-4d53585f476f,rev?*
G04 #@! TF.SameCoordinates,Original*
G04 #@! TF.FileFunction,Copper,L1,Top*
G04 #@! TF.FilePolarity,Positive*
%FSLAX46Y46*%
G04 Gerber Fmt 4.6, Leading zero omitted, Abs format (unit mm)*
G04 Created by KiCad (PCBNEW (6.0.9)) date 2025-04-02 09:35:11*
%MOMM*%
%LPD*%
G01*
G04 APERTURE LIST*
G04 #@! TA.AperFunction,ComponentPad*
%ADD10R,2.400000X1.600000*%
G04 #@! TD*
G04 #@! TA.AperFunction,ComponentPad*
%ADD11O,2.400000X1.600000*%
G04 #@! TD*
G04 #@! TA.AperFunction,ComponentPad*
%ADD12R,1.600000X1.600000*%
G04 #@! TD*
G04 #@! TA.AperFunction,ComponentPad*
%ADD13O,1.600000X1.600000*%
G04 #@! TD*
G04 #@! TA.AperFunction,ViaPad*
%ADD14C,0.800000*%
G04 #@! TD*
G04 #@! TA.AperFunction,Conductor*
%ADD15C,0.450000*%
G04 #@! TD*
G04 #@! TA.AperFunction,Conductor*
%ADD16C,0.300000*%
G04 #@! TD*
G04 APERTURE END LIST*
D10*
X137160000Y-77470000D03*
D11*
X137160000Y-80010000D03*
X137160000Y-82550000D03*
X137160000Y-85090000D03*
X137160000Y-87630000D03*
X137160000Y-90170000D03*
X137160000Y-92710000D03*
X137160000Y-95250000D03*
X137160000Y-97790000D03*
X137160000Y-100330000D03*
X137160000Y-102870000D03*
X137160000Y-105410000D03*
X137160000Y-107950000D03*
X137160000Y-110490000D03*
X137160000Y-113030000D03*
X137160000Y-115570000D03*
X137160000Y-118110000D03*
X137160000Y-120650000D03*
X137160000Y-123190000D03*
X137160000Y-125730000D03*
X157480000Y-125730000D03*
X157480000Y-123190000D03*
X157480000Y-120650000D03*
X157480000Y-118110000D03*
X157480000Y-115570000D03*
X157480000Y-113030000D03*
X157480000Y-110490000D03*
X157480000Y-107950000D03*
X157480000Y-105410000D03*
X157480000Y-102870000D03*
X157480000Y-100330000D03*
X157480000Y-97790000D03*
X157480000Y-95250000D03*
X157480000Y-92710000D03*
X157480000Y-90170000D03*
X157480000Y-87630000D03*
X157480000Y-85090000D03*
X157480000Y-82550000D03*
X157480000Y-80010000D03*
X157480000Y-77470000D03*
D12*
X139710000Y-76200000D03*
D13*
X139710000Y-78740000D03*
X139710000Y-81280000D03*
X139710000Y-83820000D03*
X139710000Y-86360000D03*
X139710000Y-88900000D03*
X139710000Y-91440000D03*
X139710000Y-93980000D03*
X139710000Y-96520000D03*
X139710000Y-99060000D03*
X139710000Y-101600000D03*
X139710000Y-104140000D03*
X139710000Y-106680000D03*
X139710000Y-109220000D03*
X139710000Y-111760000D03*
X139710000Y-114300000D03*
X139710000Y-116840000D03*
X139710000Y-119380000D03*
X139710000Y-121920000D03*
X139710000Y-124460000D03*
X154950000Y-124460000D03*
X154950000Y-121920000D03*
X154950000Y-119380000D03*
X154950000Y-116840000D03*
X154950000Y-114300000D03*
X154950000Y-111760000D03*
X154950000Y-109220000D03*
X154950000Y-106680000D03*
X154950000Y-104140000D03*
X154950000Y-101600000D03*
X154950000Y-99060000D03*
X154950000Y-96520000D03*
X154950000Y-93980000D03*
X154950000Y-91440000D03*
X154950000Y-88900000D03*
X154950000Y-86360000D03*
X154950000Y-83820000D03*
X154950000Y-81280000D03*
X154950000Y-78740000D03*
X154950000Y-76200000D03*
D14*
X145373600Y-106928600D03*
X149777300Y-111268800D03*
X150777400Y-116353400D03*
X141872700Y-90291000D03*
X144423600Y-88793000D03*
X146339400Y-124684900D03*
X147869400Y-112789700D03*
X150827000Y-92791600D03*
X147842300Y-82947400D03*
X151844700Y-93336600D03*
X146394300Y-83453300D03*
X145748200Y-94102200D03*
X144037100Y-90345100D03*
X144425000Y-115797300D03*
X145561900Y-101014200D03*
X146768400Y-101166600D03*
X148069800Y-98486900D03*
X149070000Y-98284300D03*
X149639800Y-99512200D03*
X150358900Y-100446300D03*
X146800700Y-90403800D03*
X146992900Y-93770700D03*
X145451500Y-88452500D03*
X147289100Y-84532800D03*
X149612100Y-80496600D03*
X144260300Y-80214500D03*
X146738500Y-79728400D03*
X152193800Y-124965900D03*
X143462700Y-84663000D03*
X144987900Y-84674000D03*
X144426000Y-74526100D03*
X149432400Y-89902100D03*
X147628100Y-87381700D03*
X148500900Y-115125500D03*
X150008000Y-121671300D03*
X149007900Y-121801800D03*
X144853500Y-119749900D03*
X148938500Y-95721100D03*
X149818500Y-85457200D03*
X143662600Y-112816200D03*
X145164600Y-112779500D03*
X146315000Y-121701900D03*
X151217200Y-105174600D03*
X151009000Y-106175700D03*
X148834100Y-104992300D03*
X149476700Y-105764300D03*
X148813000Y-106919400D03*
X147581200Y-105684300D03*
X146455400Y-106933400D03*
D15*
X145373600Y-107024400D02*
X149618000Y-111268800D01*
X149618000Y-111268800D02*
X149777300Y-111268800D01*
X145373600Y-106928600D02*
X145373600Y-107024400D01*
X147869400Y-112789800D02*
X147869400Y-112789700D01*
X152473200Y-113030000D02*
X150777400Y-114725800D01*
X150777400Y-114725800D02*
X148841400Y-112789800D01*
X157480000Y-113030000D02*
X152473200Y-113030000D01*
X150777400Y-114725800D02*
X150777400Y-116353400D01*
X148841400Y-112789800D02*
X147869400Y-112789800D01*
X141390300Y-118924800D02*
X140935100Y-119380000D01*
X153269700Y-118924800D02*
X141390300Y-118924800D01*
X153724900Y-119380000D02*
X153269700Y-118924800D01*
X154950000Y-119380000D02*
X153724900Y-119380000D01*
X139710000Y-119380000D02*
X140935100Y-119380000D01*
D16*
X149810700Y-91421500D02*
X150528200Y-91421500D01*
X151844700Y-92738000D02*
X151844700Y-93336600D01*
X146394300Y-83453300D02*
X146394300Y-88005100D01*
X150528200Y-91421500D02*
X151844700Y-92738000D01*
X146394300Y-88005100D02*
X149810700Y-91421500D01*
X145748200Y-94102200D02*
X146266900Y-94620900D01*
X149789800Y-94620900D02*
X152958900Y-97790000D01*
X146266900Y-94620900D02*
X149789800Y-94620900D01*
X152958900Y-97790000D02*
X157480000Y-97790000D01*
X145561900Y-101014200D02*
X145561900Y-102456300D01*
X145561900Y-102456300D02*
X139948300Y-108069900D01*
X139710000Y-109220000D02*
X139710000Y-108069900D01*
X139948300Y-108069900D02*
X139710000Y-108069900D01*
X146768400Y-101166600D02*
X146768400Y-103110200D01*
X139975900Y-110609900D02*
X139710000Y-110609900D01*
X143921700Y-105956900D02*
X143921700Y-106664100D01*
X143921700Y-106664100D02*
X139975900Y-110609900D01*
X146768400Y-103110200D02*
X143921700Y-105956900D01*
X139710000Y-111760000D02*
X139710000Y-110609900D01*
X146992900Y-93770700D02*
X151050600Y-93770700D01*
X151050600Y-93770700D02*
X153799900Y-96520000D01*
X154950000Y-96520000D02*
X153799900Y-96520000D01*
X147289100Y-84532800D02*
X151972700Y-84532800D01*
X151972700Y-84532800D02*
X153799900Y-86360000D01*
X154950000Y-86360000D02*
X153799900Y-86360000D01*
X149700300Y-90170000D02*
X149432400Y-89902100D01*
X157480000Y-90170000D02*
X149700300Y-90170000D01*
X148500900Y-115197200D02*
X150447000Y-117143300D01*
X148500900Y-115125500D02*
X148500900Y-115197200D01*
X150447000Y-117143300D02*
X153496600Y-117143300D01*
X154950000Y-116840000D02*
X153799900Y-116840000D01*
X153496600Y-117143300D02*
X153799900Y-116840000D01*
X138541600Y-107202000D02*
X138710100Y-107370500D01*
X137160000Y-107950000D02*
X138710100Y-107950000D01*
X149476700Y-105764300D02*
X149584200Y-105656800D01*
X146892600Y-100198300D02*
X145311400Y-100198300D01*
X138541600Y-106191600D02*
X138541600Y-107202000D01*
X149584200Y-102889900D02*
X146892600Y-100198300D01*
X149584200Y-105656800D02*
X149584200Y-102889900D01*
X139443000Y-105290200D02*
X138541600Y-106191600D01*
X138710100Y-107370500D02*
X138710100Y-107950000D01*
X140219500Y-105290200D02*
X139443000Y-105290200D01*
X145311400Y-100198300D02*
X140219500Y-105290200D01*
X142734000Y-112973800D02*
X140137800Y-115570000D01*
X140137800Y-115570000D02*
X137160000Y-115570000D01*
X144434400Y-106776600D02*
X144434400Y-110950000D01*
X144434400Y-110950000D02*
X142734000Y-112650400D01*
X145526700Y-105684300D02*
X144434400Y-106776600D01*
X142734000Y-112650400D02*
X142734000Y-112973800D01*
X147581200Y-105684300D02*
X145526700Y-105684300D01*
M02*
